<svg width="1270" height="351" viewBox="0 0 1270 351" fill="none" xmlns="http://www.w3.org/2000/svg">
<g clip-path="url(#clip0_2060_493)">
<rect width="1270" height="351" rx="36" fill="white"/>
<path d="M130.756 120.848C124.338 127.267 116.483 130.476 107.192 130.476C97.9005 130.476 90.0457 127.267 83.6274 120.848C77.2091 114.369 74 106.514 74 97.2839C74 88.0538 77.2091 80.2296 83.6274 73.8113C90.0457 67.3319 97.9005 64.0922 107.192 64.0922C116.483 64.0922 124.338 67.3319 130.756 73.8113C137.174 80.2296 140.384 88.0538 140.384 97.2839C140.384 106.514 137.174 114.369 130.756 120.848ZM88.1203 116.447C93.2549 121.643 99.6121 124.241 107.192 124.241C114.771 124.241 121.129 121.643 126.263 116.447C131.398 111.19 133.965 104.803 133.965 97.2839C133.965 89.7654 131.398 83.4082 126.263 78.2124C121.129 72.9555 114.771 70.3271 107.192 70.3271C99.6121 70.3271 93.2549 72.9555 88.1203 78.2124C82.9856 83.4082 80.4183 89.7654 80.4183 97.2839C80.4183 104.803 82.9856 111.19 88.1203 116.447Z" fill="black"/>
<path d="M188.032 65.1924V71.244H168.319V129.375H161.901V71.244H142.187V65.1924H188.032Z" fill="black"/>
<path d="M239.379 123.324H246.255V141.662H239.837V129.375H193.992V141.662H187.574V123.324H192.8C197.018 118.373 199.127 110.732 199.127 100.401V65.1924H239.379V123.324ZM200.41 123.324H232.96V71.244H205.545V100.585C205.545 110.732 203.833 118.311 200.41 123.324Z" fill="black"/>
<path d="M263.257 123.324H294.432V129.375H256.839V65.1924H293.974V71.244H263.257V93.9831H291.681V100.035H263.257V123.324Z" fill="black"/>
<path d="M299.5 129.375V123.691C303.962 124.302 307.294 122.927 309.494 119.565C311.756 116.141 312.887 109.907 312.887 100.86V65.1924H354.514V129.375H348.096V71.244H319.305V101.043C319.305 106.85 318.847 111.71 317.93 115.622C317.013 119.534 315.637 122.529 313.804 124.608C312.031 126.625 309.983 128 307.66 128.734C305.399 129.406 302.679 129.62 299.5 129.375Z" fill="black"/>
<path d="M375.631 123.324H406.806V129.375H369.213V65.1924H406.347V71.244H375.631V93.9831H404.055V100.035H375.631V123.324Z" fill="black"/>
<path d="M459.094 65.1924H465.513V129.375H459.094V99.3928H424.252V129.375H417.834V65.1924H424.252V93.3413H459.094V65.1924Z" fill="black"/>
<path d="M521.415 129.375V77.1121L485.656 129.375H480.154V65.1924H486.573V117.456L522.332 65.1924H527.833V129.375H521.415Z" fill="black"/>
<path d="M548.893 123.324H580.068V129.375H542.475V65.1924H579.609V71.244H548.893V93.9831H577.317V100.035H548.893V123.324Z" fill="black"/>
<path d="M123.513 150.14V214.323H117.094V156.192H84.0859V214.323H77.6676V150.14H123.513Z" fill="black"/>
<path d="M161.12 150.14C166.866 150.14 171.664 152.066 175.515 155.917C179.366 159.768 181.292 164.566 181.292 170.312C181.292 176.058 179.366 180.857 175.515 184.708C171.664 188.559 166.866 190.484 161.12 190.484H144.616V214.323H138.197V150.14H161.12ZM161.12 184.433C165.093 184.433 168.363 183.118 170.931 180.49C173.559 177.8 174.873 174.408 174.873 170.312C174.873 166.217 173.559 162.855 170.931 160.226C168.363 157.537 165.093 156.192 161.12 156.192H144.616V184.433H161.12Z" fill="black"/>
<path d="M233.541 214.323V162.06L197.781 214.323H192.28V150.14H198.698V202.404L234.457 150.14H239.959V214.323H233.541Z" fill="black"/>
<path d="M299.529 214.323H291.093L261.019 183.241V214.323H254.601V150.14H261.019V179.481L290.176 150.14H298.612L267.804 181.315L299.529 214.323Z" fill="black"/>
<path d="M301.828 214.323V208.639C306.29 209.25 309.622 207.875 311.822 204.513C314.084 201.09 315.215 194.855 315.215 185.808V150.14H356.842V214.323H350.424V156.192H321.633V185.991C321.633 191.798 321.175 196.658 320.258 200.57C319.341 204.482 317.965 207.477 316.132 209.556C314.359 211.573 312.311 212.948 309.988 213.682C307.727 214.354 305.007 214.568 301.828 214.323Z" fill="black"/>
<path d="M414.269 214.323L408.309 198.553H377.868L371.908 214.323H365.123L389.787 150.14H396.389L421.054 214.323H414.269ZM380.16 192.501H406.017L393.088 158.118L380.16 192.501Z" fill="black"/>
<path d="M475.14 208.272H482.017V226.61H475.598V214.323H429.753V226.61H423.335V208.272H428.561C432.779 203.321 434.888 195.68 434.888 185.349V150.14H475.14V208.272ZM436.172 208.272H468.722V156.192H441.306V185.533C441.306 195.68 439.595 203.26 436.172 208.272Z" fill="black"/>
<path d="M533.861 150.14H540.279V214.323H533.861V184.341H499.019V214.323H492.6V150.14H499.019V178.289H533.861V150.14Z" fill="black"/>
<path d="M608.01 205.796C601.591 212.215 593.736 215.424 584.445 215.424C575.154 215.424 567.299 212.215 560.881 205.796C554.463 199.317 551.253 191.462 551.253 182.232C551.253 173.002 554.463 165.178 560.881 158.759C567.299 152.28 575.154 149.04 584.445 149.04C593.736 149.04 601.591 152.28 608.01 158.759C614.428 165.178 617.637 173.002 617.637 182.232C617.637 191.462 614.428 199.317 608.01 205.796ZM565.374 201.395C570.508 206.591 576.865 209.189 584.445 209.189C592.025 209.189 598.382 206.591 603.517 201.395C608.651 196.138 611.219 189.751 611.219 182.232C611.219 174.713 608.651 168.356 603.517 163.16C598.382 157.904 592.025 155.275 584.445 155.275C576.865 155.275 570.508 157.904 565.374 163.16C560.239 168.356 557.672 174.713 557.672 182.232C557.672 189.751 560.239 196.138 565.374 201.395Z" fill="black"/>
<path d="M640.533 142.805V137.487H664.372V142.805H640.533ZM669.874 214.323V162.06L634.115 214.323H628.613V150.14H635.032V202.404L670.791 150.14H676.292V214.323H669.874Z" fill="black"/>
<path d="M118.928 299.272V247.008L83.169 299.272H77.6676V235.089H84.0859V287.352L119.845 235.089H125.346V299.272H118.928Z" fill="black"/>
<path d="M181.249 235.089H187.667V299.272H181.249V269.289H146.406V299.272H139.988V235.089H146.406V263.237H181.249V235.089Z" fill="black"/>
<path d="M257.414 249.392C263.099 253.671 265.941 259.6 265.941 267.18C265.941 274.76 263.099 280.689 257.414 284.968C251.791 289.247 244.333 291.6 235.042 292.028V299.272H228.624V292.028C219.332 291.6 211.844 289.247 206.16 284.968C200.536 280.689 197.724 274.76 197.724 267.18C197.724 259.6 200.536 253.671 206.16 249.392C211.844 245.113 219.332 242.76 228.624 242.332V235.089H235.042V242.332C244.333 242.76 251.791 245.113 257.414 249.392ZM210.744 253.61C206.343 256.788 204.142 261.312 204.142 267.18C204.142 273.048 206.343 277.602 210.744 280.842C215.145 284.02 221.105 285.793 228.624 286.16V248.2C221.105 248.567 215.145 250.37 210.744 253.61ZM235.042 286.16C242.561 285.793 248.52 284.02 252.921 280.842C257.323 277.602 259.523 273.048 259.523 267.18C259.523 261.312 257.323 256.788 252.921 253.61C248.52 250.37 242.561 248.567 235.042 248.2V286.16Z" fill="black"/>
<path d="M329.089 290.744C322.671 297.163 314.816 300.372 305.525 300.372C296.234 300.372 288.379 297.163 281.961 290.744C275.542 284.265 272.333 276.41 272.333 267.18C272.333 257.95 275.542 250.126 281.961 243.707C288.379 237.228 296.234 233.988 305.525 233.988C314.816 233.988 322.671 237.228 329.089 243.707C335.508 250.126 338.717 257.95 338.717 267.18C338.717 276.41 335.508 284.265 329.089 290.744ZM286.454 286.343C291.588 291.539 297.945 294.137 305.525 294.137C313.105 294.137 319.462 291.539 324.597 286.343C329.731 281.086 332.298 274.699 332.298 267.18C332.298 259.661 329.731 253.304 324.597 248.109C319.462 242.852 313.105 240.223 305.525 240.223C297.945 240.223 291.588 242.852 286.454 248.109C281.319 253.304 278.752 259.661 278.752 267.18C278.752 274.699 281.319 281.086 286.454 286.343Z" fill="black"/>
<path d="M372.616 235.089C378.361 235.089 383.16 237.014 387.011 240.865C390.862 244.716 392.787 249.514 392.787 255.26C392.787 261.006 390.862 265.805 387.011 269.656C383.16 273.507 378.361 275.432 372.616 275.432H356.111V299.272H349.693V235.089H372.616ZM372.616 269.381C376.589 269.381 379.859 268.066 382.426 265.438C385.055 262.748 386.369 259.356 386.369 255.26C386.369 251.165 385.055 247.803 382.426 245.174C379.859 242.485 376.589 241.14 372.616 241.14H356.111V269.381H372.616Z" fill="black"/>
<path d="M462.457 235.089V299.272H456.039V244.808L433.575 282.401H432.658L410.194 244.808V299.272H403.776V235.089H411.753L433.117 270.848L454.48 235.089H462.457Z" fill="black"/>
<path d="M519.837 299.272L513.878 283.501H483.436L477.477 299.272H470.692L495.356 235.089H501.958L526.622 299.272H519.837ZM485.729 277.449H511.585L498.657 243.066L485.729 277.449Z" fill="black"/>
<path d="M570.641 235.089V241.14H550.927V299.272H544.509V241.14H524.796V235.089H570.641Z" fill="black"/>
<path d="M621.074 299.272V247.008L585.315 299.272H579.813V235.089H586.232V287.352L621.991 235.089H627.492V299.272H621.074Z" fill="black"/>
<path d="M687.062 299.272H678.627L648.552 268.189V299.272H642.134V235.089H648.552V264.429L677.71 235.089H686.145L655.337 266.263L687.062 299.272Z" fill="black"/>
<path d="M736.582 299.272V247.008L700.823 299.272H695.321V235.089H701.74V287.352L737.499 235.089H743V299.272H736.582Z" fill="black"/>
<rect x="1956.12" y="221.183" width="942.868" height="235.89" rx="117.945" transform="rotate(-166.286 1956.12 221.183)" fill="url(#paint0_linear_2060_493)"/>
<circle cx="1182.68" cy="-88.9657" r="117.945" transform="rotate(-166.286 1182.68 -88.9657)" fill="white"/>
<rect x="1301.9" y="737.281" width="942.868" height="235.89" rx="117.945" transform="rotate(-106.291 1301.9 737.281)" fill="url(#paint1_linear_2060_493)"/>
<circle cx="1183.7" cy="-87.6057" r="117.945" transform="rotate(-106.291 1183.7 -87.6057)" fill="#31FAC2"/>
<rect x="1234.48" y="668.043" width="1087.22" height="235.89" rx="117.945" transform="rotate(-71.9452 1234.48 668.043)" fill="url(#paint2_linear_2060_493)"/>
<rect x="697.118" y="581.541" width="1361.64" height="235.89" rx="117.945" transform="rotate(-45.4919 697.118 581.541)" fill="url(#paint3_linear_2060_493)"/>
<path d="M1037.28 278.768C1035.85 278.883 1034.18 278.75 1034.06 276.196C1034.02 275.423 1033.54 274.668 1033.25 273.912C1031.26 268.815 1031.29 268.857 1035.95 265.635C1037.07 264.863 1038.36 264.17 1038.44 262.361C1038.5 260.928 1040.03 259.511 1041.14 259.258C1042.44 258.959 1042.64 261.139 1043.25 262.063C1045.14 264.901 1046.16 268.137 1047.19 271.355C1047.85 273.438 1047.33 274.931 1045.29 276.048C1042.89 277.352 1040.6 278.785 1037.28 278.768Z" fill="#31FAC2"/>
<path d="M862.938 243.667C862.629 240.221 863.553 236.922 864.108 233.574C864.473 231.364 865.144 230.886 867.228 232.2C874.739 236.946 882.77 240.706 891.278 243.214C927.028 253.757 961.71 251.761 994.926 233.894C996.827 232.871 998.601 231.596 1000.35 230.321C1001.06 229.801 1001.31 229.091 1002.59 229.636C1004.73 230.539 1002.24 230.827 1002.5 231.666C1003.75 235.696 1004.13 239.908 1004.38 244.12C1004.42 244.795 1004.39 245.469 1004.4 246.147C1002.82 245.908 1001.44 246.65 1000.09 247.187C992.769 250.093 985.392 252.71 977.765 254.8C968.047 257.46 958.172 259.258 948.219 259.831C935.21 260.579 922.131 260.379 909.157 258.387C898.14 256.694 887.428 253.943 877.008 249.97C872.188 248.132 867.663 245.687 862.938 243.667Z" fill="#9FC1FF"/>
<path d="M829.539 160.788C827.449 142.516 833.281 126.107 842.07 110.666C852.648 92.082 868.268 78.8094 887.618 69.8404C890.611 68.4527 893.369 66.3694 896.482 65.4806C902.054 63.8927 907.784 62.8106 913.499 61.7989C925.416 59.6875 937.346 59.6699 949.351 61.4686C968.083 64.2791 984.703 71.7656 999.445 83.4748C1013.88 94.9382 1024.33 109.388 1030.49 126.778C1034.29 137.521 1036.15 148.654 1035.61 160.107C1035.53 161.74 1035.51 163.388 1034.88 164.944C1032.55 165.355 1032.73 167.628 1032.17 169.069C1022.91 192.789 1005.35 208.272 982.613 218.154C966.112 225.328 948.543 228.029 930.552 228.093C927.116 228.103 923.828 227.214 920.406 227.211C912.618 227.204 904.962 225.591 897.581 223.487C884.084 219.64 871.384 213.991 860.184 205.12C848.159 195.596 839.095 184.07 833.115 169.936C831.837 166.908 831.953 163.339 829.539 160.788ZM932.512 81.0789C922.858 81.0543 913.429 82.3647 904.313 85.4387C880.051 93.6243 861.73 108.527 852.894 133.115C842.404 162.302 850.997 194.026 886.687 207.818C898.779 212.491 911.318 214.68 924.165 215.344C942.999 216.317 961.513 214.578 979.153 207.453C996.43 200.476 1009.71 189.171 1014.25 170.379C1019.54 148.496 1014.06 128.678 999.817 111.555C982.406 90.6135 959.286 81.6305 932.512 81.0789Z" fill="#FCFCFC"/>
<path d="M829.539 160.789C831.952 163.339 831.836 166.909 833.115 169.933C839.094 184.067 848.158 195.593 860.184 205.117C871.384 213.988 884.083 219.637 897.581 223.484C904.962 225.588 912.617 227.201 920.406 227.208C923.828 227.212 927.116 228.1 930.552 228.09C948.542 228.027 966.112 225.325 982.613 218.151C1005.35 208.269 1022.91 192.786 1032.17 169.066C1032.73 167.625 1032.55 165.352 1034.88 164.941C1035.35 170.211 1033.89 175.2 1032.51 180.171C1029.41 191.367 1023.9 201.278 1016.48 210.208C1002.56 226.959 984.232 236.342 963.526 241.282C936.419 247.749 909.705 246.126 883.75 235.559C876.154 232.467 869.163 228.287 862.53 223.424C853.112 216.525 845.604 207.939 839.797 197.93C835.416 190.376 832.405 182.194 830.863 173.545C830.115 169.329 828.597 165.184 829.539 160.789Z" fill="#9FC1FF"/>
<path d="M869.434 276.396C867.101 272.581 865.042 268.713 864.628 264.086C864.431 261.905 864.456 260.675 867.083 260.918C877.633 261.891 887.126 264.852 893.14 274.506C895.013 277.51 896.885 280.514 898.73 283.532C905.222 294.148 914.377 300.83 926.923 302.207C938.72 303.5 950.095 302.464 959.886 294.763C965.149 290.625 968.37 284.902 971.655 279.242C973.022 276.888 974.332 274.499 975.783 272.202C981.58 263.011 990.644 260.981 1000.6 261.093C1004.16 261.132 1001.82 263.493 1001.9 264.887C1000.89 264.982 1000.73 265.748 1000.4 266.539C994.575 280.451 985.413 291.78 972.839 299.969C956.665 310.505 938.663 314.068 919.745 310.635C901.294 307.287 886.255 297.841 874.865 282.72C873.214 280.528 872.276 277.598 869.434 276.396Z" fill="#FCFCFC"/>
<path d="M862.938 243.668C867.663 245.688 872.188 248.133 877.004 249.97C887.424 253.94 898.136 256.694 909.153 258.388C922.127 260.38 935.203 260.58 948.216 259.832C958.165 259.259 968.04 257.464 977.761 254.801C985.388 252.714 992.766 250.093 1000.08 247.188C1001.44 246.65 1002.82 245.909 1004.39 246.148C1004.43 248.344 1004.75 250.564 1003.9 252.693C1001.45 252.682 998.984 252.566 996.535 252.675C984.102 253.227 974.374 258.184 968.595 269.735C966.674 273.579 964.309 277.26 961.906 280.759C954.227 291.956 936.815 297.004 923.726 292.844C912.958 289.419 905.907 282.031 900.261 272.711C896.85 267.079 893.934 261.009 887.649 257.636C879.906 253.483 871.668 251.78 862.984 251.79C862.65 249.085 862.65 246.376 862.938 243.668ZM933.467 265.793C928.205 265.937 923.437 266.879 919.313 269.876C913.576 274.046 913.625 280.717 919.369 284.873C926.715 290.189 939.766 290.153 947.151 284.796C952.769 280.721 952.909 274.235 947.418 270.069C943.22 266.89 938.312 265.983 933.467 265.793Z" fill="#FCFCFC"/>
<path d="M869.434 276.395C872.273 277.6 873.214 280.53 874.858 282.711C886.251 297.832 901.291 307.279 919.738 310.627C938.66 314.059 956.658 310.497 972.832 299.961C985.409 291.772 994.572 280.442 1000.39 266.53C1000.72 265.739 1000.88 264.974 1001.9 264.879C996.946 284.556 985.381 299.328 967.91 309.257C932.516 329.373 887.063 314.74 869.785 277.944C869.571 277.477 869.55 276.915 869.434 276.395Z" fill="#9FC1FF"/>
<path d="M862.984 251.79C871.669 251.779 879.907 253.48 887.65 257.636C893.935 261.008 896.851 267.079 900.262 272.711C905.908 282.031 912.955 289.419 923.726 292.844C936.816 297.007 954.224 291.959 961.907 280.759C964.307 277.26 966.671 273.578 968.596 269.735C974.375 258.184 984.103 253.227 996.536 252.675C998.988 252.566 1001.45 252.682 1003.9 252.693C1004.45 255.848 1003.32 257.067 999.975 256.733C996.736 256.41 993.476 256.796 990.223 257.439C981.967 259.066 975.728 263.436 971.393 270.568C969.555 273.592 967.788 276.666 966.137 279.793C959.293 292.742 948.371 298.156 933.971 298.114C919.549 298.068 908.764 292.282 901.689 279.674C900.758 278.012 899.718 276.41 898.787 274.748C891.94 262.512 881.063 257.186 867.492 256.575C863.058 256.378 863.055 256.483 862.984 251.79Z" fill="#9FC1FF"/>
<path d="M1048.73 143.223C1048.73 146.908 1048.82 150.593 1048.7 154.275C1048.59 157.732 1046.45 160.623 1043.62 161.449C1041.73 161.997 1040.45 161.783 1040.47 159.292C1040.55 148.166 1038.74 137.314 1035.34 126.739C1034.56 124.315 1035.45 124.199 1037.52 124.009C1044.57 123.37 1049.59 126.827 1048.93 134.626C1048.7 137.472 1048.9 140.356 1048.9 143.223C1048.84 143.223 1048.78 143.223 1048.73 143.223Z" fill="#9FC1FF"/>
<path d="M816.095 143.17C816.095 139.899 816.06 136.632 816.102 133.362C816.197 126.149 822.057 121.986 829.03 124.101C830.805 124.638 829.909 125.717 829.635 126.63C828.033 131.963 826.61 137.328 825.812 142.861C825.054 148.12 824.53 153.386 824.418 158.695C824.347 161.976 822.977 162.728 820.121 160.954C817.49 159.32 816.229 156.864 816.197 153.794C816.162 150.253 816.19 146.711 816.19 143.17C816.158 143.17 816.127 143.17 816.095 143.17Z" fill="#9FC1FF"/>
<path d="M931.3 329.879C925.886 330.104 919.218 328.045 912.979 324.392C912.392 324.047 911.823 323.671 911.268 323.282C910.147 322.495 909.645 321.279 909.1 320.095C910.256 319.607 911.496 319.61 912.635 319.926C916.576 321.019 920.567 321.75 924.618 322.326C935.069 323.816 945.24 322.386 955.326 319.754C956.345 319.487 957.813 318.426 958.274 319.407C958.688 320.292 957.311 321.409 956.334 322.217C949.6 327.768 941.741 329.837 931.3 329.879Z" fill="#9FC1FF"/>
<path d="M1056.23 300.97C1056.32 302.41 1056.23 303.861 1054.51 304.181C1052.5 304.553 1051.85 303 1051.63 301.497C1051.34 299.572 1050.89 297.776 1049.69 296.217C1047.34 293.178 1044.28 291.621 1040.46 292.292C1036.41 293.002 1033.55 295.317 1032.39 299.421C1032.36 299.551 1032.37 299.695 1032.33 299.825C1031.84 301.549 1032.03 304.409 1029.49 303.924C1026.52 303.359 1027.56 300.432 1027.91 298.458C1028.36 296.037 1029.53 293.792 1031.44 292.152C1033.56 290.325 1035.5 288.526 1035.06 285.35C1034.92 284.37 1035.57 283.861 1036.55 283.889C1039.49 283.98 1042.15 282.905 1044.75 281.771C1046.49 281.019 1047.48 281.286 1047.24 283.292C1046.83 286.724 1048.8 288.811 1051.11 290.785C1054.25 293.462 1056.35 296.67 1056.23 300.97Z" fill="#31FAC2"/>
<path d="M808.713 299.984C809.079 296.734 810.435 293.597 813.21 291.394C815.768 289.364 817.015 286.936 816.906 283.736C816.85 282.099 817.524 280.704 819.221 281.561C822.39 283.159 827.112 282.636 827.979 287.72C828.12 288.535 829.529 289.072 830.505 289.606C834.194 291.637 836.102 295.055 837.163 298.986C837.482 300.167 837.514 301.442 836.959 302.594C836.6 303.339 836.014 303.996 835.1 303.975C834.212 303.957 833.562 303.427 833.291 302.577C833.007 301.67 832.817 300.732 832.585 299.808C831.387 295.069 827.484 291.953 822.868 292.055C818.297 292.153 814.489 295.554 813.586 300.346C813.561 300.479 813.558 300.616 813.547 300.753C813.393 302.633 813.02 304.565 810.582 304.2C808.404 303.876 808.682 301.906 808.713 299.984Z" fill="#31FAC2"/>
<path d="M1028.77 263.829C1027.79 263.872 1027.34 263.102 1026.84 262.498C1024.75 259.947 1022.16 257.966 1019.49 256.083C1018.79 255.595 1017.59 255.468 1018.63 254.052C1020.8 251.098 1021.39 247.56 1021.65 244.026C1021.81 241.918 1022.45 241.795 1024.13 242.684C1028.76 245.122 1032.78 248.319 1036.36 252.103C1036.91 252.689 1037.43 253.308 1037.45 254.217C1037.52 256.996 1031.41 263.773 1028.77 263.829Z" fill="#31FAC2"/>
<path d="M843.278 244.364C843.577 245.382 844.752 246.611 844.752 246.611L845.982 251.354C845.982 251.354 846.479 255.166 844.146 257.014C841.922 258.778 839.822 260.661 837.289 262.056C834.552 263.563 831.84 260.204 831.84 260.204L829.648 258.1C829.648 258.1 827.013 253.891 828.365 252.391C831.952 248.418 836.14 245.2 840.844 242.603C843.205 241.304 843.331 242.575 843.278 244.364Z" fill="#31FAC2"/>
<path d="M932.642 43.7643C927.527 43.9926 924.489 40.3811 924.144 35.3679C923.846 31.0538 927.619 27.3755 932.066 27.221C936.957 27.0488 940.839 30.6779 940.828 35.4066C940.814 40.0896 937.29 43.694 932.642 43.7643Z" fill="#9FC1FF"/>
<path d="M827.477 278.662C823.514 279.003 821.002 276.793 818.336 274.935C817.015 274.015 817.419 272.722 817.749 271.601C818.979 267.428 820.623 263.426 822.875 259.674C823.816 258.104 824.297 258.669 824.976 259.804C826.876 262.983 829.033 265.924 832.546 267.543C833.597 268.028 833.692 268.745 833.245 269.855C832.283 272.244 831.38 274.675 830.734 277.159C830.133 279.449 828.383 278.388 827.477 278.662Z" fill="#31FAC2"/>
<path d="M858.49 241.155C857.949 243.365 858.388 246.084 856.418 248.424C854.942 250.173 853.333 250.426 851.475 250.107C849.584 249.783 848.615 248.431 848.246 246.523C847.564 242.992 849.725 240.003 853.365 239.532C854.289 239.413 855.205 239.181 856.098 238.917C858.582 238.186 858.578 238.169 858.49 241.155Z" fill="#31FAC2"/>
<path d="M1016.86 245.595C1016.66 247.798 1015.82 249.857 1014.12 251.581C1012.94 252.79 1011.78 252.39 1010.41 251.947C1009.06 251.504 1008.91 250.658 1008.92 249.484C1008.94 247.317 1008.99 245.142 1008.82 242.985C1008.59 240.094 1009.92 239.651 1012.38 240.276C1014.3 240.758 1016.86 243.522 1016.86 245.595Z" fill="#31FAC2"/>
<path d="M932.513 81.0796C959.283 81.6311 982.403 90.6107 999.817 111.556C1014.06 128.682 1019.54 148.496 1014.25 170.38C1009.71 189.175 996.43 200.477 979.153 207.454C961.513 214.578 942.999 216.317 924.165 215.344C911.318 214.68 898.78 212.495 886.687 207.819C850.997 194.023 842.404 162.303 852.895 133.116C861.734 108.528 880.055 93.625 904.313 85.4394C913.429 82.3654 922.859 81.055 932.513 81.0796ZM979.704 139.292C973.219 139.334 968.185 144.66 968.382 151.261C968.54 156.535 974.003 161.695 979.539 161.801C985.698 161.917 990.978 156.615 990.953 150.344C990.925 144.242 985.849 139.25 979.704 139.292ZM902.56 150.485C902.584 144.109 897.81 139.267 891.528 139.292C885.258 139.317 880.223 144.221 880.22 150.302C880.216 156.756 884.98 161.618 891.497 161.808C897.293 161.976 902.539 156.612 902.56 150.485ZM934.659 179.928C941.605 179.9 947.345 174.901 948.104 168.195C948.297 166.498 948.269 164.734 946.189 164.263C943.997 163.765 943.354 165.43 943.063 167.116C942.848 168.335 942.613 169.484 941.917 170.548C940.912 172.08 940.133 173.232 938.857 170.668C937.916 168.771 935.924 168.792 934.223 169.277C932.969 169.635 931.806 170.503 930.756 171.332C929.302 172.481 928.297 172.238 927.559 170.629C927.053 169.526 926.396 168.423 926.217 167.26C925.943 165.472 925.546 163.817 923.361 164.2C921.26 164.569 921.33 166.47 921.422 168.114C921.783 174.666 927.735 179.957 934.659 179.928Z" fill="#262627"/>
<path d="M934.659 179.928C941.605 179.9 947.345 174.901 948.104 168.195C948.297 166.498 948.269 164.734 946.189 164.263C943.997 163.765 943.354 165.43 943.063 167.116C942.848 168.335 942.613 169.484 941.917 170.548C940.912 172.08 940.133 173.232 938.857 170.668C937.916 168.771 935.924 168.792 934.223 169.277C932.969 169.635 931.806 170.503 930.756 171.332C929.302 172.481 928.297 172.238 927.559 170.629C927.053 169.526 926.396 168.423 926.217 167.26C925.943 165.472 925.546 163.817 923.361 164.2C921.26 164.569 921.33 166.47 921.422 168.114C921.783 174.666 927.735 179.957 934.659 179.928Z" fill="#262627"/>
<path d="M933.468 265.794C938.313 265.984 943.22 266.89 947.419 270.073C952.91 274.24 952.769 280.725 947.152 284.8C939.767 290.158 926.716 290.193 919.37 284.877C913.626 280.721 913.577 274.05 919.314 269.88C923.438 266.88 928.202 265.938 933.468 265.794ZM935.903 278.378C936.971 278.227 938.098 278.237 939.096 277.883C940.505 277.38 941.931 276.706 941.72 274.752C941.545 273.108 940.336 272.571 938.991 272.149C936.675 271.426 934.378 271.615 932.235 272.602C929.951 273.653 929.877 276.021 931.975 277.377C933.159 278.136 934.497 278.339 935.903 278.378Z" fill="#262627"/>
<path d="M979.704 139.292C985.848 139.25 990.928 144.242 990.953 150.344C990.978 156.619 985.697 161.92 979.539 161.801C974.002 161.695 968.539 156.535 968.381 151.261C968.181 144.66 973.219 139.334 979.704 139.292Z" fill="#31FAC2"/>
<path d="M902.559 150.485C902.538 156.612 897.293 161.98 891.496 161.808C884.98 161.614 880.212 156.756 880.219 150.302C880.223 144.221 885.261 139.316 891.528 139.292C897.81 139.264 902.58 144.108 902.559 150.485Z" fill="#31FAC2"/>
<path d="M924.5 169.147C931.333 169.147 938.005 169.147 944.877 169.147C944.506 170.555 944.267 171.747 943.947 172.62C942.654 176.154 941.092 177.71 939.485 178.746C935.584 181.265 931.71 181.041 927.899 176.995C926.892 175.925 925.928 174.487 925.165 171.949C924.944 171.212 924.774 170.309 924.5 169.147Z" fill="#31FAC2"/>
<path d="M935.903 278.377C934.498 278.338 933.159 278.134 931.975 277.372C929.878 276.019 929.952 273.652 932.235 272.598C934.378 271.61 936.679 271.424 938.991 272.144C940.336 272.566 941.545 273.103 941.721 274.748C941.928 276.701 940.502 277.375 939.096 277.878C938.099 278.236 936.971 278.222 935.903 278.377Z" fill="#FCFCFC"/>
<path d="M1053.45 143.347C1053.45 147.035 1053.56 150.724 1053.43 154.41C1053.2 160.737 1049.31 165.69 1043.23 166.382C1040.06 166.741 1039.54 168.174 1039.2 170.661C1036.98 186.895 1030.41 201.183 1019.78 213.62C1016.23 217.776 1012.32 221.573 1008.02 224.95C1006.47 226.162 1005.71 227.342 1006.55 229.432C1007.28 231.263 1007.74 232.668 1010.18 233.075C1034.91 237.207 1053.1 258.373 1053.63 283.643C1053.67 285.649 1054.12 287.164 1055.62 288.678C1058.98 292.085 1060.73 296.357 1060.99 301.16C1061.21 305.217 1058.53 308.53 1054.76 309.022C1051.09 309.5 1047.83 306.812 1047.11 302.723C1046.42 298.736 1044.82 296.912 1042.03 296.891C1039.17 296.87 1037.4 298.69 1036.63 302.435C1035.76 306.679 1032.63 309.261 1028.95 308.78C1024.95 308.253 1022.39 304.915 1022.73 300.566C1023.11 295.757 1025.05 291.618 1028.45 288.228C1029.47 287.206 1030.07 286.289 1030.14 284.768C1030.59 273.48 1022.93 261.774 1012.34 257.759C1008.69 256.371 1008.56 256.487 1007.73 260.611C1002.97 284.153 990.303 301.978 969.277 313.754C968.097 314.415 966.962 315.037 966.33 316.421C961.566 326.837 952.576 331.566 942.03 333.646C930.19 335.982 918.987 334.138 908.869 327.101C905.057 324.448 902.289 320.984 900.367 316.846C899.577 315.149 898.453 314.187 896.819 313.227C876.657 301.399 864.049 284.079 859.569 261.05C858.54 255.749 858.73 255.714 853.566 257.53C842.513 261.419 834.739 272.524 834.802 284.223C834.809 285.815 835.216 286.946 836.432 288.119C839.878 291.446 841.846 295.606 842.25 300.408C842.629 304.926 840.237 308.046 836.123 308.587C832.107 309.114 829.36 306.942 828.415 302.488C827.565 298.483 826.04 296.849 823.152 296.853C820.356 296.856 818.712 298.655 817.918 302.586C816.983 307.195 814.029 309.581 809.985 308.98C806.18 308.418 803.598 304.831 804.052 300.517C804.519 296.066 806.026 291.97 809.29 288.815C810.909 287.251 811.383 285.618 811.44 283.45C812.093 257.534 830.512 236.764 856.176 232.854C857.855 232.598 859.703 232.745 860.283 230.332C860.866 227.908 859.439 226.917 857.876 225.712C847.895 218.018 840.465 208.255 833.987 197.498C829.044 189.291 827.667 180.256 825.872 171.23C825.362 168.666 825.232 166.751 821.484 166.438C815.838 165.968 811.71 160.564 811.573 154.596C811.401 147.088 811.352 139.567 811.612 132.066C811.889 124.119 816.945 119.208 824.804 119.777C830.351 120.181 832.845 118.214 835.466 113.26C851.809 82.3763 877.729 64.231 911.866 57.535C916.7 56.5865 921.559 55.9822 926.484 55.8101C927.931 55.7609 930.299 56.3722 930.173 53.8252C930.06 51.5557 931.648 48.7768 928.023 47.2521C922.191 44.7999 919.317 39.8429 919.921 34.4292C920.621 28.1442 925.24 23.5596 931.385 23.0466C937.459 22.5408 942.961 26.1944 944.601 31.8259C946.351 37.8229 943.561 44.1219 937.898 47.0062C936.44 47.7474 934.596 47.7404 934.522 50.3296C934.378 55.2761 934.466 55.522 939.497 55.8909C975.106 58.5117 1003.46 74.0783 1023.99 103.466C1026.56 107.147 1028.94 111.005 1030.49 115.249C1031.74 118.642 1033.72 120.139 1037.53 119.686C1041.92 119.162 1046.22 119.661 1049.67 123.097C1052.49 125.904 1053.49 129.305 1053.53 133.116C1053.55 136.531 1053.53 139.946 1053.53 143.357C1053.5 143.347 1053.48 143.347 1053.45 143.347ZM862.984 251.79C863.054 256.483 863.062 256.374 867.485 256.575C881.056 257.186 891.932 262.512 898.779 274.748C899.71 276.41 900.75 278.012 901.681 279.674C908.757 292.282 919.542 298.068 933.963 298.114C948.364 298.16 959.286 292.746 966.13 279.793C967.784 276.666 969.548 273.592 971.385 270.568C975.72 263.432 981.96 259.066 990.216 257.439C993.469 256.8 996.729 256.413 999.968 256.733C1003.31 257.063 1004.44 255.844 1003.9 252.693C1004.75 250.564 1004.42 248.344 1004.39 246.148C1004.38 245.473 1004.41 244.795 1004.37 244.121C1004.12 239.908 1003.74 235.696 1002.49 231.667C1002.23 230.824 1001.96 230.321 1001.96 230.321C1001.96 230.321 1001.05 229.801 1000.34 230.321C998.594 231.596 996.817 232.872 994.916 233.894C961.703 251.758 927.018 253.757 891.268 243.214C882.76 240.706 874.732 236.943 867.218 232.201C865.134 230.887 864.463 231.365 864.098 233.574C863.546 236.922 862.619 240.221 862.928 243.668C862.65 246.376 862.65 249.085 862.984 251.79ZM869.434 276.396C869.55 276.916 869.571 277.478 869.793 277.949C887.07 314.749 932.523 329.377 967.918 309.261C985.385 299.333 996.954 284.56 1001.9 264.883C1001.82 263.489 1004.16 261.128 1000.6 261.089C990.644 260.977 981.58 263.007 975.784 272.198C974.333 274.499 973.022 276.884 971.656 279.238C968.371 284.898 965.149 290.62 959.887 294.759C950.096 302.46 938.724 303.496 926.923 302.203C914.378 300.826 905.223 294.144 898.73 283.527C896.882 280.51 895.01 277.506 893.141 274.502C887.126 264.848 877.634 261.887 867.084 260.913C864.456 260.671 864.432 261.901 864.628 264.082C865.046 268.709 867.102 272.581 869.434 276.396ZM829.539 160.789C828.598 165.184 830.115 169.33 830.867 173.546C832.409 182.195 835.42 190.377 839.801 197.93C845.608 207.939 853.116 216.525 862.535 223.425C869.167 228.284 876.158 232.464 883.754 235.559C909.709 246.127 936.423 247.753 963.53 241.282C984.236 236.339 1002.56 226.959 1016.49 210.208C1023.91 201.282 1029.42 191.368 1032.51 180.171C1033.89 175.2 1035.35 170.215 1034.89 164.942C1035.51 163.386 1035.53 161.738 1035.61 160.104C1036.15 148.651 1034.29 137.522 1030.49 126.775C1024.33 109.389 1013.88 94.9358 999.448 83.4724C984.707 71.7632 968.086 64.2767 949.354 61.4662C937.35 59.664 925.42 59.685 913.503 61.7964C907.787 62.8082 902.057 63.8868 896.485 65.4782C893.369 66.367 890.611 68.4503 887.622 69.838C868.271 78.807 852.649 92.0796 842.074 110.664C833.281 126.108 827.449 142.518 829.539 160.789ZM1048.73 143.224C1048.78 143.224 1048.84 143.224 1048.9 143.224C1048.9 140.357 1048.7 137.473 1048.93 134.627C1049.59 126.828 1044.57 123.371 1037.52 124.01C1035.45 124.197 1034.56 124.316 1035.34 126.74C1038.75 137.311 1040.55 148.167 1040.47 159.293C1040.45 161.787 1041.73 162.001 1043.62 161.45C1046.45 160.624 1048.59 157.733 1048.7 154.276C1048.82 150.598 1048.73 146.909 1048.73 143.224ZM816.095 143.171C816.126 143.171 816.158 143.171 816.189 143.171C816.189 146.712 816.165 150.253 816.196 153.795C816.225 156.865 817.489 159.321 820.121 160.954C822.98 162.729 824.35 161.977 824.417 158.696C824.53 153.387 825.053 148.121 825.812 142.862C826.609 137.329 828.036 131.964 829.634 126.631C829.908 125.718 830.804 124.639 829.03 124.102C822.056 121.987 816.193 126.153 816.102 133.362C816.059 136.63 816.095 139.9 816.095 143.171ZM931.3 329.88C941.742 329.841 949.6 327.768 956.335 322.214C957.312 321.41 958.689 320.289 958.274 319.404C957.818 318.423 956.346 319.488 955.327 319.751C945.241 322.383 935.07 323.812 924.619 322.323C920.568 321.747 916.577 321.016 912.635 319.923C911.497 319.607 910.257 319.604 909.101 320.092C909.649 321.273 910.148 322.492 911.269 323.278C911.824 323.668 912.393 324.048 912.98 324.389C919.219 328.046 925.887 330.101 931.3 329.88ZM1056.23 300.97C1056.35 296.674 1054.25 293.466 1051.12 290.789C1048.8 288.815 1046.83 286.728 1047.24 283.296C1047.48 281.286 1046.49 281.019 1044.76 281.774C1042.15 282.906 1039.49 283.981 1036.56 283.893C1035.57 283.861 1034.92 284.374 1035.06 285.354C1035.5 288.53 1033.56 290.329 1031.44 292.156C1029.54 293.8 1028.36 296.045 1027.92 298.462C1027.56 300.436 1026.53 303.363 1029.49 303.928C1032.03 304.413 1031.84 301.553 1032.34 299.828C1032.38 299.698 1032.36 299.554 1032.39 299.424C1033.56 295.321 1036.41 293.006 1040.46 292.296C1044.29 291.625 1047.35 293.182 1049.69 296.22C1050.9 297.78 1051.35 299.575 1051.63 301.501C1051.85 303.004 1052.5 304.557 1054.51 304.185C1056.23 303.858 1056.32 302.411 1056.23 300.97ZM808.713 299.983C808.682 301.905 808.404 303.876 810.589 304.202C813.028 304.568 813.4 302.635 813.555 300.756C813.565 300.619 813.569 300.482 813.593 300.348C814.493 295.56 818.304 292.156 822.875 292.057C827.491 291.959 831.394 295.072 832.592 299.811C832.824 300.735 833.014 301.673 833.298 302.579C833.565 303.429 834.219 303.96 835.108 303.977C836.021 303.995 836.608 303.341 836.966 302.597C837.521 301.444 837.486 300.169 837.17 298.989C836.109 295.058 834.201 291.636 830.512 289.609C829.536 289.071 828.127 288.537 827.986 287.722C827.119 282.642 822.394 283.162 819.228 281.564C817.531 280.706 816.857 282.101 816.913 283.738C817.022 286.939 815.771 289.366 813.217 291.397C810.435 293.6 809.079 296.733 808.713 299.983ZM1028.77 263.826C1031.41 263.773 1037.52 256.996 1037.46 254.217C1037.44 253.308 1036.92 252.686 1036.36 252.103C1032.78 248.319 1028.77 245.122 1024.14 242.684C1022.45 241.795 1021.81 241.918 1021.66 244.026C1021.39 247.56 1020.81 251.098 1018.64 254.052C1017.6 255.468 1018.8 255.591 1019.49 256.083C1022.17 257.966 1024.75 259.947 1026.85 262.498C1027.34 263.102 1027.79 263.872 1028.77 263.826ZM843.279 244.363C843.279 244.363 843.205 241.303 840.845 242.603C836.14 245.196 831.953 248.414 828.366 252.391C827.013 253.891 829.648 258.099 829.648 258.099L831.84 260.204C831.84 260.204 834.552 263.562 837.289 262.055C839.822 260.661 841.92 258.774 844.147 257.014C846.48 255.166 845.113 253.121 844.752 250.651C844.557 249.311 844.113 248.634 843.813 247.313C843.554 246.171 843.279 244.363 843.279 244.363ZM932.643 43.7636C937.29 43.6933 940.814 40.0923 940.825 35.4058C940.835 30.6772 936.953 27.0516 932.063 27.2202C927.615 27.3748 923.842 31.0531 924.141 35.3672C924.489 40.3769 927.524 43.9919 932.643 43.7636ZM827.477 278.662C828.383 278.388 830.133 279.449 830.73 277.158C831.377 274.671 832.283 272.24 833.242 269.854C833.688 268.744 833.593 268.028 832.543 267.543C829.03 265.923 826.876 262.983 824.972 259.803C824.294 258.669 823.816 258.099 822.871 259.673C820.619 263.425 818.975 267.427 817.746 271.6C817.415 272.718 817.011 274.01 818.332 274.934C821.006 276.793 823.514 279.003 827.477 278.662ZM1037.28 278.767C1040.6 278.785 1042.89 277.351 1045.28 276.048C1047.33 274.934 1047.84 273.438 1047.18 271.354C1046.16 268.136 1045.13 264.897 1043.25 262.062C1042.63 261.138 1042.01 259.082 1041.04 259.617C1040.43 260.487 1040.08 261.463 1039.03 262.771C1037.78 264.314 1037.06 264.862 1035.95 265.635C1031.28 268.853 1031.26 268.815 1033.24 273.912C1033.54 274.667 1034.02 275.423 1034.06 276.196C1034.18 278.75 1035.85 278.883 1037.28 278.767ZM858.491 241.156C858.575 238.169 858.582 238.187 856.102 238.918C855.206 239.181 854.289 239.413 853.369 239.533C849.729 240.003 847.569 242.993 848.25 246.524C848.619 248.428 849.589 249.784 851.479 250.107C853.337 250.427 854.946 250.174 856.422 248.424C858.389 246.081 857.95 243.365 858.491 241.156ZM1016.86 245.596C1016.87 243.523 1014.3 240.759 1012.38 240.274C1009.92 239.648 1008.6 240.091 1008.82 242.982C1008.99 245.14 1008.95 247.314 1008.92 249.482C1008.91 250.659 1009.06 251.505 1010.42 251.944C1011.78 252.387 1012.94 252.788 1014.13 251.579C1015.82 249.858 1016.66 247.799 1016.86 245.596Z" fill="#262627"/>
</g>
<defs>
<linearGradient id="paint0_linear_2060_493" x1="2036.02" y1="339.474" x2="2795.23" y2="339.474" gradientUnits="userSpaceOnUse">
<stop stop-color="#0124DC" stop-opacity="0"/>
<stop offset="1" stop-color="#77FFD4" stop-opacity="0.97"/>
</linearGradient>
<linearGradient id="paint1_linear_2060_493" x1="1381.8" y1="855.572" x2="2141.01" y2="855.572" gradientUnits="userSpaceOnUse">
<stop stop-color="#004AFF" stop-opacity="0.28"/>
<stop offset="1" stop-color="#77FFD4" stop-opacity="0.97"/>
</linearGradient>
<linearGradient id="paint2_linear_2060_493" x1="1326.61" y1="786.334" x2="2202.05" y2="786.334" gradientUnits="userSpaceOnUse">
<stop stop-color="#004AFF" stop-opacity="0.29"/>
<stop offset="1" stop-color="#77FFD4" stop-opacity="0.97"/>
</linearGradient>
<linearGradient id="paint3_linear_2060_493" x1="812.503" y1="699.832" x2="1908.91" y2="699.832" gradientUnits="userSpaceOnUse">
<stop stop-color="#77FFD4" stop-opacity="0.97"/>
<stop offset="1" stop-color="#004AFF" stop-opacity="0.29"/>
</linearGradient>
<clipPath id="clip0_2060_493">
<rect width="1270" height="351" rx="36" fill="white"/>
</clipPath>
</defs>
</svg>
