<?xml version="1.0" encoding="utf-8"?>
<!-- Generator: Adobe Illustrator 17.1.0, SVG Export Plug-In . SVG Version: 6.00 Build 0)  -->
<!DOCTYPE svg PUBLIC "-//W3C//DTD SVG 1.1//EN" "http://www.w3.org/Graphics/SVG/1.1/DTD/svg11.dtd">
<svg version="1.1" id="Слой_1" xmlns="http://www.w3.org/2000/svg" xmlns:xlink="http://www.w3.org/1999/xlink" x="0px" y="0px"
	 viewBox="0 0 247.8 70.9" enable-background="new 0 0 247.8 70.9" xml:space="preserve">
<path fill="#8C99A1" d="M131.6,0l-14.9,25L101.8,0H90.7v56.7h11.1V20.4L113,39h7.1l11.2-18.6v36.3h11.1V0H131.6z M187.5,0
	l-22.1,36.1V0h-11.5v56.7h10.5l22.1-36.1v36.1H198V0H187.5z M204.5,0v10h16v46.6h11.5V10h15.9V0H204.5z"/>
<polygon fill="#8C99A1" points="42.5,0 42.5,10 67.9,10 67.9,23.5 46.2,23.5 46.2,33 67.9,33 67.9,48.2 42.5,57.4 42.5,70.9 
	79.4,56.7 79.4,0 "/>
<polygon fill="#DD1541" points="0,0 0,56.7 36.8,70.9 36.8,0 "/>
</svg>
