<svg width="375" height="351" viewBox="0 0 375 351" fill="none" xmlns="http://www.w3.org/2000/svg">
<path d="M28.4742 212.85C25.2452 184.625 34.2539 159.276 47.832 135.425C64.1724 106.716 88.3005 86.2134 118.192 72.3585C122.816 70.2149 127.076 66.9968 131.884 65.6238C140.491 63.1708 149.342 61.4993 158.172 59.9364C176.58 56.6748 195.01 56.6476 213.554 59.4262C242.49 63.7677 268.165 75.3325 290.936 93.4204C313.23 111.128 329.375 133.449 338.888 160.312C344.765 176.908 347.636 194.106 346.795 211.798C346.676 214.321 346.643 216.866 345.677 219.27C342.079 219.905 342.361 223.417 341.493 225.642C327.182 262.284 300.059 286.201 264.936 301.466C239.445 312.548 212.305 316.722 184.514 316.819C179.207 316.835 174.127 315.462 168.841 315.457C156.81 315.446 144.985 312.955 133.583 309.705C112.732 303.762 93.1141 295.036 75.8132 281.333C57.2368 266.62 43.2354 248.815 33.9988 226.982C32.0234 222.304 32.2025 216.79 28.4742 212.85ZM187.542 89.7192C172.629 89.6812 158.063 91.7055 143.981 96.454C106.502 109.099 78.201 132.12 64.5523 170.103C48.3475 215.189 61.6218 264.194 116.754 285.5C135.433 292.718 154.802 296.099 174.648 297.125C203.742 298.628 232.342 295.942 259.59 284.936C286.28 274.158 306.788 256.694 313.805 227.666C321.978 193.862 313.506 163.248 291.511 136.798C264.615 104.448 228.901 90.5713 187.542 89.7192Z" fill="#FCFCFC"/>
<path d="M28.4743 212.85C32.2026 216.79 32.0235 222.304 33.9989 226.977C43.2355 248.809 57.2369 266.615 75.8132 281.327C93.1142 295.03 112.733 303.757 133.583 309.699C144.985 312.95 156.81 315.441 168.841 315.452C174.127 315.457 179.207 316.83 184.514 316.814C212.305 316.716 239.446 312.543 264.936 301.461C300.059 286.195 327.182 262.279 341.493 225.636C342.361 223.411 342.079 219.9 345.677 219.265C346.399 227.405 344.141 235.112 342.014 242.791C337.228 260.086 328.718 275.395 317.257 289.191C295.75 315.066 267.437 329.562 235.451 337.192C193.577 347.183 152.311 344.675 112.217 328.351C100.484 323.576 89.6844 317.118 79.4384 309.607C64.8889 298.948 53.2916 285.685 44.3209 270.224C37.5535 258.556 32.9027 245.917 30.5202 232.555C29.3643 226.043 27.0199 219.639 28.4743 212.85Z" fill="#9FC1FF"/>
<path d="M367.065 185.716C367.065 191.409 367.206 197.102 367.021 202.789C366.853 208.129 363.548 212.595 359.169 213.871C356.249 214.717 354.274 214.386 354.306 210.539C354.436 193.352 351.642 176.588 346.388 160.253C345.184 156.508 346.557 156.329 349.748 156.036C360.639 155.048 368.4 160.389 367.385 172.436C367.016 176.832 367.325 181.288 367.325 185.716C367.239 185.716 367.152 185.716 367.065 185.716Z" fill="#9FC1FF"/>
<path d="M7.70479 185.635C7.70479 180.582 7.65053 175.535 7.71565 170.483C7.86218 159.341 16.9143 152.91 27.6867 156.177C30.4273 157.008 29.0434 158.674 28.6201 160.085C26.1455 168.323 23.9476 176.61 22.7156 185.157C21.5434 193.281 20.7348 201.416 20.5611 209.616C20.4526 214.685 18.3361 215.846 13.924 213.106C9.85928 210.582 7.91103 206.789 7.86219 202.046C7.80792 196.575 7.85132 191.105 7.85132 185.635C7.80248 185.635 7.75363 185.635 7.70479 185.635Z" fill="#9FC1FF"/>
<path d="M187.744 32.0746C179.842 32.4273 175.148 26.8484 174.616 19.1042C174.155 12.44 179.983 6.758 186.854 6.51921C194.408 6.25329 200.405 11.8593 200.388 19.1639C200.367 26.398 194.924 31.966 187.744 32.0746Z" fill="#9FC1FF"/>
<path d="M187.544 89.7192C228.897 90.5712 264.612 104.442 291.513 136.798C313.508 163.254 321.98 193.862 313.807 227.666C306.79 256.7 286.282 274.158 259.592 284.936C232.343 295.942 203.744 298.628 174.65 297.125C154.804 296.099 135.435 292.724 116.756 285.5C61.6237 264.189 48.3494 215.189 64.5542 170.103C78.2083 132.12 106.51 109.099 143.982 96.454C158.065 91.7054 172.631 89.6812 187.544 89.7192ZM260.444 179.643C250.426 179.708 242.649 187.935 242.953 198.133C243.197 206.278 251.636 214.251 260.189 214.413C269.702 214.592 277.859 206.403 277.821 196.716C277.778 187.29 269.936 179.578 260.444 179.643ZM141.274 196.933C141.312 187.083 133.937 179.605 124.234 179.643C114.547 179.681 106.77 187.257 106.765 196.651C106.759 206.62 114.118 214.131 124.185 214.424C133.14 214.685 141.242 206.398 141.274 196.933ZM190.86 242.416C201.589 242.373 210.457 234.65 211.629 224.29C211.927 221.669 211.884 218.945 208.671 218.218C205.285 217.447 204.292 220.019 203.841 222.624C203.51 224.507 203.147 226.282 202.072 227.926C200.52 230.292 199.315 232.072 197.345 228.111C195.891 225.18 192.814 225.213 190.187 225.962C188.25 226.515 186.453 227.856 184.831 229.137C182.584 230.911 181.032 230.537 179.892 228.051C179.111 226.347 178.096 224.643 177.819 222.847C177.396 220.084 176.783 217.528 173.407 218.12C170.162 218.69 170.27 221.626 170.412 224.165C170.971 234.287 180.164 242.46 190.86 242.416Z" fill="#262627"/>
<path d="M190.86 242.416C201.589 242.373 210.457 234.65 211.629 224.29C211.927 221.669 211.884 218.945 208.671 218.218C205.285 217.447 204.292 220.019 203.841 222.624C203.51 224.507 203.147 226.282 202.072 227.926C200.52 230.292 199.315 232.072 197.345 228.111C195.891 225.18 192.814 225.213 190.187 225.962C188.25 226.515 186.453 227.856 184.831 229.137C182.584 230.911 181.032 230.537 179.892 228.051C179.111 226.347 178.096 224.643 177.819 222.847C177.396 220.084 176.783 217.528 173.407 218.12C170.162 218.69 170.27 221.626 170.412 224.165C170.971 234.287 180.164 242.46 190.86 242.416Z" fill="#262627"/>
<path d="M260.444 179.643C250.426 179.708 242.649 187.935 242.953 198.133C243.197 206.278 251.636 214.251 260.189 214.413C269.702 214.592 277.859 206.403 277.821 196.716C277.778 187.29 269.936 179.578 260.444 179.643Z" fill="#262627"/>
<path d="M141.274 196.933C141.312 187.083 133.937 179.605 124.234 179.643C114.547 179.681 106.77 187.257 106.765 196.651C106.759 206.62 114.118 214.131 124.185 214.424C133.14 214.685 141.242 206.398 141.274 196.933Z" fill="#262627"/>
<path d="M297.499 190.099C297.697 205.339 274.19 217.939 245.455 218C215.91 218.061 190.947 204.964 191.509 189.689C192.006 175.956 216.307 162.406 241.138 162.014C272.221 161.518 297.3 174.013 297.499 190.099Z" fill="#31FAC2"/>
<path d="M128.815 218C99.9761 217.947 74.7087 204.799 75.519 190.269C76.4285 173.933 99.298 161.982 129.675 162C158.299 162.009 181.384 174.637 181.499 190.348C181.632 206.094 158.828 218.053 128.815 218Z" fill="#31FAC2"/>
<path d="M202.5 238C192.105 238 181.954 238 171.5 238C172.064 237.75 172.428 237.537 172.914 237.382C174.881 236.753 177.258 236.477 179.702 236.292C185.637 235.844 191.531 235.884 197.329 236.604C198.861 236.794 200.329 237.05 201.489 237.501C201.825 237.633 202.085 237.793 202.5 238Z" fill="#31FAC2"/>
<path fill-rule="evenodd" clip-rule="evenodd" d="M374.396 191.205C374.38 189.439 374.363 187.672 374.363 185.906C374.401 185.906 374.445 185.906 374.488 185.922C374.488 184.341 374.491 182.76 374.494 181.179C374.501 177.488 374.508 173.795 374.477 170.103C374.429 164.214 372.882 158.961 368.524 154.625C363.195 149.318 356.552 148.547 349.763 149.356C343.88 150.056 340.82 147.744 338.899 142.501C336.494 135.946 332.826 129.987 328.853 124.3C297.138 78.9034 253.338 54.8567 198.331 50.8083C190.559 50.2384 190.424 49.8586 190.646 42.2175C190.736 39.0778 192.51 38.4094 194.359 37.7133C194.865 37.5226 195.377 37.3298 195.861 37.0836C204.61 32.6281 208.919 22.8976 206.216 13.6339C203.682 4.93457 195.183 -0.709417 185.8 0.0720589C176.308 0.864388 169.172 7.94651 168.092 17.6553C167.159 26.0181 171.598 33.6755 180.606 37.4635C184.838 39.2429 184.472 42.1281 184.115 44.9444C184 45.8558 183.885 46.7601 183.928 47.6172C184.09 50.885 181.594 50.7874 179.463 50.704C179.028 50.687 178.608 50.6706 178.229 50.6834C170.621 50.9494 163.115 51.8828 155.648 53.348C102.915 63.6917 62.8749 91.7218 37.6289 139.43C33.5805 147.082 29.7274 150.121 21.1583 149.497C9.01828 148.618 1.20892 156.204 0.780199 168.48C0.378607 180.066 0.454592 191.685 0.720511 203.283C0.93216 212.503 7.3088 220.85 16.0298 221.577C21.4683 222.031 21.9761 224.667 22.6696 228.268C22.7145 228.501 22.7602 228.738 22.808 228.979C23.089 230.392 23.3633 231.804 23.6374 233.216C26.0688 245.736 28.4821 258.163 35.3442 269.556C45.3514 286.173 56.8293 301.255 72.2472 313.14L86.6774 323.163C98.2855 330.49 110.686 336.302 123.83 340.177C179.054 356.463 232.634 353.375 283.94 325.779C286.876 324.2 289.622 322.23 292.319 320.26C292.339 320.245 292.359 320.231 292.38 320.218L304.183 311.962C310.825 306.747 316.86 300.88 322.346 294.46C338.774 275.249 348.917 253.178 352.346 228.1C352.867 224.258 353.676 222.044 358.566 221.49C367.965 220.421 373.973 212.769 374.325 202.995C374.468 199.067 374.432 195.137 374.396 191.205ZM29.566 227.935C28.4656 222.985 27.3642 218.03 28.4738 212.85C25.2447 184.625 34.2534 159.276 47.837 135.419C64.172 106.711 88.3055 86.208 118.197 72.3531C119.914 71.5562 121.581 70.6107 123.246 69.6668C126.059 68.0717 128.865 66.4809 131.889 65.6183C140.496 63.1599 149.347 61.4938 158.177 59.9309C176.585 56.6693 195.015 56.6368 213.559 59.4208C242.495 63.7623 268.17 75.327 290.941 93.4149C313.235 111.123 329.38 133.449 338.893 160.307C344.77 176.908 347.641 194.1 346.8 211.792C346.79 212.008 346.78 212.223 346.771 212.439C346.668 214.749 346.566 217.066 345.682 219.265C346.376 227.097 344.316 234.518 342.265 241.904C342.183 242.2 342.101 242.495 342.019 242.791C337.232 260.086 328.723 275.401 317.261 289.191C295.755 315.066 267.442 329.556 235.456 337.192C193.582 347.188 152.316 344.676 112.222 328.351C100.489 323.57 89.6893 317.112 79.4433 309.607C64.8937 298.948 53.2965 285.685 44.3258 270.224C37.5584 258.556 32.9075 245.917 30.5251 232.556C30.2498 231.012 29.9079 229.474 29.566 227.935ZM367.325 185.716L367.064 185.716C367.064 187.437 367.077 189.159 367.09 190.881C367.12 194.853 367.15 198.825 367.021 202.789C366.847 208.129 363.548 212.595 359.168 213.871C356.254 214.723 354.278 214.392 354.306 210.539C354.436 193.352 351.646 176.582 346.388 160.253C345.183 156.508 346.556 156.324 349.747 156.036C360.644 155.048 368.399 160.388 367.384 172.436C367.131 175.455 367.197 178.503 367.264 181.55C367.294 182.939 367.325 184.329 367.325 185.716ZM7.85148 185.634L7.70494 185.634C7.70494 184.056 7.69965 182.477 7.69435 180.898C7.68269 177.425 7.67104 173.952 7.71581 170.483C7.85691 159.346 16.9144 152.91 27.6868 156.177C29.9217 156.854 29.4139 158.087 28.9208 159.284C28.8092 159.555 28.6984 159.824 28.6203 160.085C26.151 168.323 23.9477 176.61 22.7158 185.157C21.5436 193.281 20.735 201.416 20.5613 209.616C20.4582 214.685 18.3417 215.846 13.9242 213.106C9.85944 210.582 7.90576 206.789 7.86235 202.045C7.82837 198.24 7.83641 194.434 7.84445 190.629C7.84796 188.964 7.85148 187.299 7.85148 185.634ZM200.382 19.1639C200.366 26.4034 194.923 31.966 187.743 32.0746C179.836 32.4273 175.147 26.843 174.61 19.1042C174.148 12.44 179.977 6.758 186.847 6.51922C194.402 6.25873 200.398 11.8593 200.382 19.1639Z" fill="#262627"/>
</svg>
