<svg width="374" height="351" viewBox="0 0 374 351" fill="none" xmlns="http://www.w3.org/2000/svg">
<path d="M27.9742 212.85C24.7452 184.625 33.7539 159.276 47.332 135.425C63.6724 106.716 87.8005 86.2135 117.692 72.3586C122.316 70.215 126.576 66.9968 131.384 65.6238C139.991 63.1709 148.842 61.4994 157.672 59.9364C176.08 56.6748 194.51 56.6477 213.054 59.4263C241.99 63.7678 267.665 75.3325 290.436 93.4204C312.73 111.128 328.875 133.449 338.388 160.313C344.265 176.908 347.136 194.106 346.295 211.798C346.176 214.321 346.143 216.866 345.177 219.271C341.579 219.905 341.861 223.417 340.993 225.642C326.682 262.284 299.559 286.201 264.436 301.467C238.945 312.548 211.805 316.722 184.014 316.819C178.707 316.836 173.627 315.463 168.341 315.457C156.31 315.446 144.485 312.955 133.083 309.705C112.232 303.762 92.6141 295.036 75.3132 281.333C56.7368 266.62 42.7354 248.815 33.4988 226.982C31.5234 222.304 31.7025 216.79 27.9742 212.85ZM187.042 89.7193C172.129 89.6813 157.563 91.7056 143.481 96.4541C106.002 109.099 77.701 132.12 64.0523 170.103C47.8475 215.189 61.1218 264.195 116.254 285.501C134.933 292.718 154.302 296.099 174.148 297.125C203.242 298.628 231.842 295.942 259.09 284.936C285.78 274.158 306.288 256.695 313.305 227.666C321.478 193.862 313.006 163.249 291.011 136.798C264.115 104.448 228.401 90.5713 187.042 89.7193Z" fill="#FCFCFC"/>
<path d="M27.9743 212.85C31.7026 216.79 31.5235 222.304 33.4989 226.977C42.7355 248.809 56.7369 266.615 75.3132 281.327C92.6142 295.03 112.233 303.757 133.083 309.699C144.485 312.95 156.31 315.441 168.341 315.452C173.627 315.457 178.707 316.83 184.014 316.814C211.805 316.716 238.946 312.543 264.436 301.461C299.559 286.195 326.682 262.279 340.993 225.636C341.861 223.411 341.579 219.9 345.177 219.265C345.899 227.405 343.641 235.112 341.514 242.791C336.728 260.086 328.218 275.396 316.757 289.191C295.25 315.066 266.937 329.562 234.951 337.192C193.077 347.183 151.811 344.676 111.717 328.351C99.984 323.576 89.1844 317.118 78.9384 309.607C64.3889 298.948 52.7916 285.685 43.8209 270.224C37.0535 258.556 32.4027 245.917 30.0202 232.556C28.8643 226.043 26.5199 219.639 27.9743 212.85Z" fill="#9FC1FF"/>
<path d="M366.565 185.716C366.565 191.409 366.706 197.101 366.521 202.789C366.353 208.129 363.048 212.595 358.669 213.871C355.749 214.717 353.774 214.386 353.806 210.539C353.936 193.351 351.142 176.588 345.888 160.253C344.684 156.508 346.057 156.329 349.248 156.036C360.139 155.048 367.9 160.388 366.885 172.436C366.516 176.832 366.825 181.287 366.825 185.716C366.739 185.716 366.652 185.716 366.565 185.716Z" fill="#9FC1FF"/>
<path d="M7.20479 185.634C7.20479 180.582 7.15053 175.535 7.21565 170.483C7.36218 159.341 16.4143 152.91 27.1867 156.177C29.9273 157.008 28.5434 158.674 28.1201 160.085C25.6455 168.323 23.4476 176.61 22.2156 185.157C21.0434 193.281 20.2348 201.416 20.0611 209.616C19.9526 214.685 17.8361 215.846 13.424 213.106C9.35928 210.582 7.41103 206.789 7.36219 202.045C7.30792 196.575 7.35132 191.105 7.35132 185.634C7.30248 185.634 7.25363 185.634 7.20479 185.634Z" fill="#9FC1FF"/>
<path d="M187.244 32.0746C179.342 32.4273 174.648 26.8484 174.116 19.1042C173.655 12.44 179.483 6.758 186.354 6.51921C193.908 6.25329 199.905 11.8593 199.888 19.1639C199.867 26.398 194.424 31.966 187.244 32.0746Z" fill="#9FC1FF"/>
<path d="M187.044 89.7191C228.397 90.5711 264.112 104.442 291.013 136.798C313.008 163.254 321.48 193.862 313.307 227.666C306.29 256.7 285.782 274.158 259.092 284.936C231.843 295.942 203.244 298.628 174.15 297.125C154.304 296.099 134.935 292.724 116.256 285.5C61.1237 264.189 47.8494 215.189 64.0542 170.103C77.7083 132.12 106.01 109.099 143.482 96.4539C157.565 91.7054 172.131 89.6811 187.044 89.7191ZM259.944 179.643C249.926 179.708 242.149 187.935 242.453 198.133C242.697 206.278 251.136 214.25 259.689 214.413C269.202 214.592 277.359 206.403 277.321 196.716C277.278 187.29 269.436 179.578 259.944 179.643ZM140.774 196.933C140.812 187.083 133.437 179.605 123.734 179.643C114.047 179.681 106.27 187.257 106.265 196.651C106.259 206.62 113.618 214.131 123.685 214.424C132.64 214.685 140.742 206.398 140.774 196.933Z" fill="#262627"/>
<path d="M259.938 179.643C269.43 179.578 277.277 187.29 277.315 196.716C277.353 206.409 269.197 214.598 259.683 214.413C251.131 214.251 242.692 206.279 242.448 198.133C242.138 187.936 249.92 179.708 259.938 179.643Z" fill="#31FAC2"/>
<path d="M140.772 196.933C140.739 206.398 132.637 214.69 123.683 214.424C113.616 214.126 106.251 206.62 106.262 196.651C106.268 187.257 114.05 179.681 123.732 179.643C133.435 179.6 140.805 187.083 140.772 196.933Z" fill="#31FAC2"/>
<path d="M174.667 225.76C185.222 225.76 195.528 225.76 206.143 225.76C205.57 227.935 205.201 229.777 204.708 231.126C202.71 236.584 200.297 238.987 197.815 240.589C191.788 244.479 185.804 244.134 179.917 237.883C178.362 236.23 176.872 234.009 175.693 230.089C175.352 228.95 175.089 227.555 174.667 225.76Z" fill="#31FAC2"/>
<path fill-rule="evenodd" clip-rule="evenodd" d="M373.896 191.205C373.88 189.439 373.863 187.672 373.863 185.906C373.901 185.906 373.945 185.906 373.988 185.922C373.988 184.341 373.991 182.76 373.994 181.179C374.001 177.488 374.008 173.795 373.977 170.103C373.929 164.214 372.382 158.961 368.024 154.625C362.695 149.318 356.052 148.547 349.263 149.356C343.38 150.056 340.32 147.744 338.399 142.501C335.994 135.946 332.326 129.987 328.353 124.3C296.638 78.9034 252.838 54.8567 197.831 50.8083C190.059 50.2384 189.924 49.8586 190.146 42.2175C190.236 39.0778 192.01 38.4094 193.859 37.7133C194.365 37.5226 194.877 37.3298 195.361 37.0836C204.11 32.6281 208.419 22.8976 205.716 13.6339C203.182 4.93457 194.683 -0.709417 185.3 0.0720589C175.808 0.864388 168.672 7.94651 167.592 17.6553C166.659 26.0181 171.098 33.6755 180.106 37.4635C184.338 39.2429 183.972 42.1281 183.615 44.9444C183.5 45.8558 183.385 46.7601 183.428 47.6172C183.59 50.885 181.094 50.7874 178.963 50.704C178.528 50.687 178.108 50.6706 177.729 50.6834C170.121 50.9494 162.615 51.8828 155.148 53.348C102.415 63.6917 62.3749 91.7218 37.1289 139.43C33.0805 147.082 29.2274 150.121 20.6583 149.497C8.51828 148.618 0.708925 156.204 0.280199 168.48C-0.121393 180.066 -0.0454081 191.685 0.220511 203.283C0.43216 212.503 6.8088 220.85 15.5298 221.577C20.9683 222.031 21.4761 224.667 22.1696 228.268C22.2145 228.501 22.2602 228.738 22.308 228.979C22.589 230.392 22.8633 231.804 23.1374 233.216C25.5688 245.736 27.9821 258.163 34.8442 269.556C44.8514 286.173 56.3293 301.255 71.7472 313.14L86.1774 323.163C97.7855 330.49 110.186 336.302 123.33 340.177C178.554 356.463 232.134 353.375 283.44 325.779C286.376 324.2 289.122 322.23 291.819 320.26C291.839 320.245 291.859 320.231 291.88 320.218L303.683 311.962C310.325 306.747 316.36 300.88 321.846 294.46C338.274 275.249 348.417 253.178 351.846 228.1C352.367 224.258 353.176 222.044 358.066 221.49C367.465 220.421 373.473 212.769 373.825 202.995C373.968 199.067 373.932 195.137 373.896 191.205ZM29.066 227.935C27.9656 222.985 26.8642 218.03 27.9738 212.85C24.7447 184.625 33.7534 159.276 47.337 135.419C63.672 106.711 87.8055 86.208 117.697 72.3531C119.414 71.5562 121.081 70.6107 122.746 69.6668C125.559 68.0717 128.365 66.4809 131.389 65.6183C139.996 63.1599 148.847 61.4938 157.677 59.9309C176.085 56.6693 194.515 56.6368 213.059 59.4208C241.995 63.7623 267.67 75.327 290.441 93.4149C312.735 111.123 328.88 133.449 338.393 160.307C344.27 176.908 347.141 194.1 346.3 211.792C346.29 212.008 346.28 212.223 346.271 212.439C346.168 214.749 346.066 217.066 345.182 219.265C345.876 227.097 343.816 234.518 341.765 241.904C341.683 242.2 341.601 242.495 341.519 242.791C336.732 260.086 328.223 275.401 316.761 289.191C295.255 315.066 266.942 329.556 234.956 337.192C193.082 347.188 151.816 344.676 111.722 328.351C99.9889 323.57 89.1893 317.112 78.9433 309.607C64.3937 298.948 52.7965 285.685 43.8258 270.224C37.0584 258.556 32.4075 245.917 30.0251 232.556C29.7498 231.012 29.4079 229.474 29.066 227.935ZM366.825 185.716L366.564 185.716C366.564 187.437 366.577 189.159 366.59 190.881C366.62 194.853 366.65 198.825 366.521 202.789C366.347 208.129 363.048 212.595 358.668 213.871C355.754 214.723 353.778 214.392 353.806 210.539C353.936 193.352 351.146 176.582 345.888 160.253C344.683 156.508 346.056 156.324 349.247 156.036C360.144 155.048 367.899 160.388 366.884 172.436C366.631 175.455 366.697 178.503 366.764 181.55C366.794 182.939 366.825 184.329 366.825 185.716ZM7.35148 185.634L7.20494 185.634C7.20494 184.056 7.19965 182.477 7.19435 180.898C7.18269 177.425 7.17104 173.952 7.21581 170.483C7.35691 159.346 16.4144 152.91 27.1868 156.177C29.4217 156.854 28.9139 158.087 28.4208 159.284C28.3092 159.555 28.1984 159.824 28.1203 160.085C25.651 168.323 23.4477 176.61 22.2158 185.157C21.0436 193.281 20.235 201.416 20.0613 209.616C19.9582 214.685 17.8417 215.846 13.4242 213.106C9.35944 210.582 7.40576 206.789 7.36235 202.045C7.32837 198.24 7.33641 194.434 7.34445 190.629C7.34796 188.964 7.35148 187.299 7.35148 185.634ZM199.882 19.1639C199.866 26.4034 194.423 31.966 187.243 32.0746C179.336 32.4273 174.647 26.843 174.11 19.1042C173.648 12.44 179.477 6.758 186.347 6.51922C193.902 6.25873 199.898 11.8593 199.882 19.1639Z" fill="#262627"/>
</svg>
