<svg width="18" height="15" viewBox="0 0 18 15" fill="none" xmlns="http://www.w3.org/2000/svg">
<path d="M0.0753353 0.727731C0.116427 0.671196 0.202036 0.601358 0.263674 0.571428C0.366404 0.521544 1.10606 0.514893 8.74232 0.514893C16.6354 0.514893 17.1114 0.518218 17.2278 0.571428C17.2997 0.604684 17.3853 0.674521 17.4264 0.731056C17.4812 0.807545 17.4983 0.880708 17.4983 1.04699C17.4983 1.21327 17.4778 1.30638 17.4059 1.44606C17.3545 1.54583 17.2621 1.67553 17.2004 1.73206C17.1388 1.79192 15.317 3.11551 13.1494 4.67854C10.9853 6.24157 9.17379 7.5452 9.12584 7.57513C9.0779 7.60839 8.94778 7.64164 8.83478 7.65162C8.6978 7.66492 8.5848 7.65495 8.49234 7.62502C8.41358 7.59841 6.6432 6.34134 4.40027 4.7251C2.22582 3.15542 0.38695 1.81853 0.315039 1.74869C0.243128 1.68218 0.143822 1.54583 0.092457 1.44606C0.020546 1.30306 0 1.21327 0 1.04699C0 0.877383 0.0171217 0.807545 0.0753353 0.727731Z" fill="black"/>
<path d="M0 8.82556C0 4.42247 0.00684866 3.54118 0.0479406 3.49795C0.071911 3.4647 0.133549 3.44142 0.184914 3.44142C0.239703 3.44142 0.373252 3.50793 0.530771 3.61767C0.671169 3.71412 2.49976 5.01442 4.5886 6.50096C7.86911 8.83886 8.41358 9.21465 8.5711 9.25123C8.71492 9.28781 8.78341 9.28781 8.92038 9.25456C9.06421 9.21798 9.62922 8.83221 12.4372 6.83352C14.276 5.52657 16.1046 4.22626 16.5019 3.94691C17.1045 3.52123 17.2415 3.43809 17.3271 3.44807C17.3956 3.45472 17.4435 3.48576 17.4709 3.54118C17.5052 3.6077 17.512 4.69517 17.4983 14.1L17.4264 14.1997C17.3853 14.2529 17.2997 14.3261 17.2278 14.356C17.1114 14.4126 16.6354 14.4159 8.74917 14.4159C0.862932 14.4159 0.38695 14.4126 0.270522 14.3593C0.198611 14.3261 0.113003 14.2529 0 14.1V8.82556Z" fill="black"/>
</svg>
