<svg width="48" height="66" viewBox="0 0 48 66" fill="none" xmlns="http://www.w3.org/2000/svg">
<path fill-rule="evenodd" clip-rule="evenodd" d="M4.3125 0.0128906L33.9375 0L48 14.502V37.834C48 58.9746 47.9875 61.2305 47.8 61.875C47.6875 62.2617 47.4875 62.816 47.3375 63.0996C47.2 63.3832 46.825 63.8988 46.5125 64.234C46.2 64.582 45.7625 64.9688 45.5625 65.0977C45.3625 65.2395 44.825 65.4973 43.5625 66H4.4375L3.625 65.6777C3.175 65.4973 2.65 65.2395 2.4375 65.0977C2.225 64.9688 1.8 64.582 1.4875 64.234C1.175 63.8988 0.8125 63.409 0.6875 63.1641C0.5625 62.9191 0.3625 62.3906 0.225 62.0039C3.8743e-07 61.3207 0 60.3023 0 33.2578C0 14.373 0.0375 4.98867 0.125 4.51172C0.2 4.125 0.3875 3.50625 0.5375 3.1582C0.7 2.79727 1.075 2.23008 1.375 1.88203C1.6875 1.54688 2.1 1.13437 2.3125 0.992578C2.525 0.837891 3.05 0.554297 3.5 0.360938L4.3125 0.0128906ZM3.4875 3.59648C3.0375 4.06055 2.8875 4.34414 2.775 4.87266C2.6625 5.3625 2.625 12.6586 2.625 33C2.625 53.3414 2.6625 60.6375 2.775 61.1402C2.8875 61.6559 3.0375 61.9395 3.4875 62.4035C3.9375 62.8676 4.2125 63.0223 4.7125 63.1383C5.2 63.2543 10.3375 63.293 24 63.293C37.6625 63.293 42.8 63.2543 43.2875 63.1383C43.7875 63.0223 44.0625 62.8676 44.5125 62.4035C44.9625 61.9395 45.1125 61.6559 45.225 61.1402C45.3375 60.6375 45.375 54.6691 45.375 38.4785V16.5C38.85 16.5 36.7625 16.4484 36.375 16.3711C36 16.2938 35.3875 16.0875 35.025 15.9199C34.675 15.7395 34.0625 15.2883 33.675 14.9273C33.25 14.5148 32.8375 13.9477 32.6125 13.4707C32.4125 13.0453 32.2 12.375 32.125 11.9883C32.05 11.6016 32 9.3457 32 6.99961V2.70703C9.8625 2.73281 4.9875 2.78438 4.625 2.86172C4.225 2.96484 3.9 3.17109 3.4875 3.59648ZM34.775 11.6402C34.8875 12.1559 35.0375 12.4395 35.4875 12.9035C35.9375 13.3676 36.2125 13.5223 36.7125 13.6383C37.1125 13.7285 38.55 13.793 40.3125 13.793C41.925 13.793 43.25 13.7543 43.25 13.7027C43.25 13.6383 41.35 11.6402 39.0375 9.25547C36.7125 6.85781 34.775 4.89844 34.7125 4.89844C34.6625 4.89844 34.625 6.26484 34.625 7.92773C34.625 9.74531 34.6875 11.2277 34.775 11.6402ZM23 22.0816C23.975 22.1203 24.2875 22.1848 24.7375 22.4426C25.0375 22.6102 25.45 22.9582 25.6375 23.2031C25.8375 23.448 26.1125 24.0023 26.2625 24.4277C26.45 24.982 26.55 25.6266 26.5875 26.6836C26.65 27.9855 26.6125 28.3336 26.325 29.5195C26.15 30.2672 25.75 31.6852 24.9125 34.4824L25.55 35.243C25.9 35.6684 26.6875 36.532 27.3125 37.1895C27.925 37.834 28.9625 38.8008 29.5875 39.3551C30.225 39.8965 30.825 40.3477 30.9 40.3477C30.9875 40.3477 31.6 40.2574 32.25 40.1414C32.9 40.0254 34.1375 39.9352 35 39.9223C35.8625 39.9223 36.875 39.9996 37.25 40.0898C37.625 40.1801 38.2 40.3863 38.525 40.5539C38.8625 40.7215 39.2625 41.0566 39.425 41.2887C39.5875 41.5078 39.7875 41.9332 39.875 42.2168C39.9625 42.5133 40.0125 43.0547 39.975 43.5059C39.9375 43.957 39.7875 44.55 39.6125 44.9238C39.3875 45.375 39.1125 45.6973 38.675 45.9937C38.3375 46.2258 37.8375 46.4836 37.5625 46.548C37.2875 46.6254 36.6875 46.6898 36.2375 46.7027C35.475 46.7285 35.3125 46.677 34.3625 46.1613C33.7875 45.852 32.975 45.3621 32.5625 45.0785C32.15 44.7949 31.4125 44.2664 30.0625 43.2738L28.5 43.6219C27.6375 43.8152 26.2875 44.1504 25.5 44.3566C24.7125 44.5758 23.3625 44.9883 20.975 45.8262L20.525 46.6641C20.2875 47.1281 19.8125 47.966 19.4625 48.5332C19.125 49.1004 18.4875 50.0285 18.0625 50.5957C17.6375 51.1629 16.8625 52.0395 16.3625 52.5293C15.85 53.032 15.15 53.6379 14.8125 53.8828C14.4625 54.1148 13.875 54.4629 13.5 54.6305C13.0125 54.8625 12.5875 54.9527 12 54.9527C11.55 54.9527 10.875 54.8496 10.5 54.7336C10.125 54.6176 9.55 54.3082 9.2125 54.0633C8.7875 53.7539 8.5375 53.4187 8.2875 52.8902C8.025 52.2844 7.975 52.0266 8.025 51.498C8.0625 51.15 8.2125 50.6086 8.3625 50.3121C8.5 50.0027 8.925 49.4613 9.275 49.1004C9.6375 48.7395 10.4375 48.1336 11.0625 47.7598C11.675 47.3859 13.675 46.3418 15.5 45.4395C17.325 44.5371 18.875 43.725 18.9625 43.6477C19.0375 43.5703 19.3875 42.7195 19.725 41.7656C20.0625 40.8117 20.7 38.9168 21.9375 35.1012L21.3125 34.1859C20.9625 33.6832 20.475 32.8969 20.2125 32.4586C19.9625 32.0074 19.575 31.2082 19.3625 30.6797C19.1375 30.1512 18.9 29.2746 18.8 28.7461C18.6875 28.0629 18.675 27.4441 18.75 26.6191C18.8 25.9875 18.975 25.1109 19.1125 24.6855C19.2625 24.2602 19.525 23.7059 19.6875 23.4609C19.8625 23.216 20.175 22.8809 20.4 22.7262C20.625 22.5586 21.0375 22.3395 21.3125 22.2363C21.675 22.0945 22.15 22.0559 23 22.0816ZM21.525 25.8457C21.4375 26.1293 21.375 26.7996 21.375 27.3281C21.375 27.9469 21.4625 28.5527 21.6 29.0039C21.7375 29.3906 22.0125 30.0609 22.225 30.4863C22.4375 30.9117 22.675 31.3629 22.775 31.4918C22.925 31.698 22.9875 31.5691 23.3375 30.3316C23.5625 29.5711 23.8125 28.6172 23.8875 28.2305C23.975 27.8051 24 27.109 23.95 26.4902C23.9 25.7812 23.8 25.3559 23.65 25.1367C23.4625 24.8918 23.275 24.8016 22.8375 24.7758C22.3625 24.75 22.2 24.7887 21.9625 25.0336C21.8 25.2012 21.6 25.5621 21.525 25.8457ZM22.4125 42.3715C22.425 42.3844 23.2 42.1652 24.125 41.8945C25.05 41.6238 26.1625 41.3273 26.5875 41.2371L27.35 41.0566C24.75 38.4141 23.975 37.6406 23.95 37.6406C23.9125 37.6406 23.55 38.6977 23.1375 39.9996C22.725 41.2887 22.4 42.3586 22.4125 42.3715ZM34.25 42.9258C34.425 43.0676 34.875 43.3512 35.25 43.5574C35.6875 43.8023 36.125 43.9441 36.4375 43.957C36.7125 43.957 37 43.9055 37.075 43.8539C37.15 43.8023 37.25 43.6605 37.2875 43.5445C37.3375 43.4156 37.35 43.2223 37.3125 43.1191C37.275 43.016 37.0375 42.8742 36.775 42.7969C36.525 42.7324 35.775 42.668 35.125 42.668H33.9375L34.25 42.9258ZM11.625 50.6344C11.3125 50.8664 10.9625 51.2273 10.8375 51.4336L10.625 51.8332C11.3 52.1297 11.6875 52.207 11.9 52.207C12.125 52.207 12.5625 52.0781 12.8625 51.9234C13.1625 51.7687 13.8375 51.2273 14.35 50.7375C14.8625 50.2348 15.5625 49.4613 15.8875 49.023C16.225 48.5848 16.4875 48.1594 16.4625 48.0949C16.4375 48.0305 15.475 48.4816 14.3 49.1004C13.1375 49.7191 11.9375 50.4023 11.625 50.6344Z" fill="#2659E1"/>
</svg>
