<svg width="18" height="17" viewBox="0 0 18 17" fill="none" xmlns="http://www.w3.org/2000/svg">
<path d="M1.8964 0.764301C1.97157 0.730131 2.10825 0.682294 2.20392 0.658376C2.3201 0.627623 2.56612 0.617373 3.55019 0.627623L3.65612 0.730131C3.73129 0.805304 3.85772 1.06499 4.11399 1.66979C4.31217 2.13107 4.60944 2.83838 4.77687 3.24158C4.94772 3.64478 5.14932 4.12315 5.22791 4.30083C5.33042 4.53318 5.37142 4.67327 5.37484 4.79628C5.37484 4.93638 5.35433 5.00472 5.25183 5.17214C5.1869 5.2849 4.99897 5.52409 4.83838 5.70177C4.67778 5.87945 4.42151 6.17331 4.26775 6.35099C4.11399 6.52867 3.95681 6.74393 3.91922 6.82936C3.87139 6.93187 3.84747 7.05715 3.84747 7.20522C3.84747 7.32823 3.86455 7.48883 3.88847 7.564C3.90897 7.63917 4.04223 7.88519 4.18574 8.11071C4.32925 8.33623 4.5411 8.65058 4.65728 8.81118C4.77004 8.97178 4.99556 9.26221 5.15615 9.4604C5.31675 9.65858 5.6106 9.99685 5.8122 10.2121C6.01039 10.4274 6.35891 10.7691 6.58101 10.9707C6.80311 11.1723 7.14822 11.4627 7.34641 11.6165C7.54459 11.7702 7.81111 11.9684 7.94437 12.0573C8.07763 12.1461 8.33048 12.3067 8.50816 12.416C8.68585 12.5254 9.04121 12.7167 9.29406 12.8432C9.54691 12.9696 9.91936 13.1439 10.1244 13.2327C10.326 13.3215 10.5857 13.4035 10.7018 13.4206C10.8248 13.4377 10.9991 13.4377 11.105 13.4206C11.2075 13.407 11.3545 13.366 11.4296 13.3352C11.5048 13.3044 11.6278 13.2361 11.703 13.1814C11.7782 13.1268 11.9798 12.9115 12.1506 12.6996C12.3249 12.4878 12.629 12.0812 12.8306 11.801C13.0561 11.4798 13.2372 11.2645 13.3021 11.227C13.367 11.1928 13.4832 11.1689 13.5926 11.1689C13.7497 11.1689 13.8796 11.2201 14.7372 11.6267C15.2669 11.8762 16.1074 12.2794 17.5049 12.9628L17.4844 13.3899C17.4742 13.6256 17.4332 13.9571 17.3956 14.1245C17.358 14.2919 17.276 14.5619 17.2145 14.7225C17.1564 14.8831 17.0471 15.0983 16.9787 15.2008C16.9104 15.3034 16.7566 15.481 16.637 15.5938C16.5175 15.7066 16.2885 15.8842 16.1279 15.9902C15.9673 16.0961 15.7145 16.2464 15.5641 16.3216C15.4138 16.3968 15.1849 16.4959 15.0516 16.5437C14.9183 16.5881 14.6279 16.6701 14.4024 16.7214C14.0402 16.8034 13.9445 16.8136 13.5994 16.7966C13.3841 16.7863 12.9843 16.735 12.711 16.6872C12.4376 16.6394 12.0003 16.5437 11.7372 16.4788C11.4741 16.4104 11.0811 16.2977 10.8658 16.2259C10.6506 16.1542 10.3123 16.0312 10.1141 15.9526C9.91594 15.874 9.47857 15.6758 9.1403 15.5118C8.80202 15.3478 8.34073 15.1086 8.11522 14.9787C7.8897 14.8523 7.53776 14.6405 7.32932 14.5072C7.12089 14.3774 6.76895 14.1382 6.54343 13.9776C6.31791 13.817 5.98647 13.5676 5.80879 13.4275C5.63111 13.2839 5.36117 13.0618 5.21082 12.932C5.06048 12.8022 4.77687 12.5391 4.57869 12.3511C4.38051 12.1598 4.06957 11.8454 3.88164 11.6472C3.69371 11.4491 3.38618 11.1039 3.19825 10.8784C3.01032 10.6529 2.73355 10.301 2.57978 10.0925C2.42602 9.8841 2.18684 9.54924 2.05016 9.3408C1.91348 9.13237 1.71188 8.84877 1.60596 8.70867C1.50003 8.56858 1.32235 8.31231 1.21643 8.14488C1.10709 7.97745 0.912321 7.62209 0.785895 7.35898C0.656051 7.09588 0.481788 6.67218 0.399781 6.41933C0.314358 6.16647 0.21185 5.80428 0.170847 5.61635C0.129843 5.42841 0.0751725 5.11406 0.0478371 4.91587C0.0239185 4.71769 0 4.45459 0 4.32475C0 4.19832 0.0170847 3.98305 0.0375863 3.84637C0.0546709 3.71311 0.0956741 3.48418 0.126427 3.34409C0.157179 3.20399 0.225518 2.96481 0.280189 2.81446C0.334859 2.66412 0.440784 2.42493 0.515957 2.28484C0.587713 2.14474 0.707305 1.93973 0.775644 1.8338C0.8474 1.72788 1.01483 1.51603 1.14467 1.35885C1.27452 1.20509 1.46928 1.02399 1.57179 0.952232C1.6743 0.880476 1.82123 0.79847 1.8964 0.764301Z" fill="black"/>
</svg>
