<svg width="140" height="32" viewBox="0 0 140 32" fill="none" xmlns="http://www.w3.org/2000/svg">
<path d="M60.4187 7.73863C59.5845 8.57406 58.5635 8.99178 57.3558 8.99178C56.1481 8.99178 55.1271 8.57406 54.2928 7.73863C53.4585 6.89524 53.0414 5.87283 53.0414 4.67139C53.0414 3.46996 53.4585 2.45152 54.2928 1.61609C55.1271 0.772697 56.1481 0.351002 57.3558 0.351002C58.5635 0.351002 59.5845 0.772697 60.4187 1.61609C61.253 2.45152 61.6701 3.46996 61.6701 4.67139C61.6701 5.87283 61.253 6.89524 60.4187 7.73863ZM54.8768 7.16576C55.5442 7.84206 56.3705 8.18022 57.3558 8.18022C58.341 8.18022 59.1673 7.84206 59.8347 7.16576C60.5021 6.4815 60.8358 5.65004 60.8358 4.67139C60.8358 3.69274 60.5021 2.86526 59.8347 2.18896C59.1673 1.5047 58.341 1.16257 57.3558 1.16257C56.3705 1.16257 55.5442 1.5047 54.8768 2.18896C54.2094 2.86526 53.8757 3.69274 53.8757 4.67139C53.8757 5.65004 54.2094 6.4815 54.8768 7.16576Z" fill="black"/>
<path d="M67.8636 0.494219V1.28191H65.3012V8.84856H64.467V1.28191H61.9046V0.494219H67.8636Z" fill="black"/>
<path d="M74.5378 8.06087H75.4317V10.4478H74.5974V8.84856H68.6383V10.4478H67.804V8.06087H68.4834C69.0316 7.41639 69.3057 6.42182 69.3057 5.07717V0.494219H74.5378V8.06087ZM69.4726 8.06087H73.7035V1.28191H70.14V5.10104C70.14 6.42182 69.9175 7.40843 69.4726 8.06087Z" fill="black"/>
<path d="M77.6416 8.06087H81.6938V8.84856H76.8074V0.494219H81.6342V1.28191H77.6416V4.24174H81.3363V5.02943H77.6416V8.06087Z" fill="black"/>
<path d="M82.3526 8.84856V8.10861C82.9326 8.18817 83.3656 8.00915 83.6516 7.57154C83.9456 7.12598 84.0926 6.31441 84.0926 5.13685V0.494219H89.5034V8.84856H88.6692V1.28191H84.9269V5.16072C84.9269 5.91659 84.8673 6.54913 84.7481 7.05835C84.6289 7.56756 84.4501 7.95743 84.2118 8.22795C83.9814 8.49052 83.7152 8.66954 83.4133 8.76502C83.1193 8.85254 82.7657 8.88039 82.3526 8.84856Z" fill="black"/>
<path d="M92.2483 8.06087H96.3005V8.84856H91.4141V0.494219H96.2409V1.28191H92.2483V4.24174H95.943V5.02943H92.2483V8.06087Z" fill="black"/>
<path d="M103.097 0.494219H103.931V8.84856H103.097V4.94589H98.5682V8.84856H97.7339V0.494219H98.5682V4.1582H103.097V0.494219Z" fill="black"/>
<path d="M111.198 8.84856V2.04574L106.55 8.84856H105.835V0.494219H106.669V7.29704L111.317 0.494219H112.032V8.84856H111.198Z" fill="black"/>
<path d="M114.769 8.06087H118.822V8.84856H113.935V0.494219H118.762V1.28191H114.769V4.24174H118.464V5.02943H114.769V8.06087Z" fill="black"/>
<path d="M59.4772 11.5514V19.9058H58.6429V12.3391H54.3524V19.9058H53.5181V11.5514H59.4772Z" fill="black"/>
<path d="M64.3655 11.5514C65.1124 11.5514 65.7361 11.8021 66.2366 12.3033C66.7372 12.8046 66.9875 13.4292 66.9875 14.1771C66.9875 14.925 66.7372 15.5496 66.2366 16.0508C65.7361 16.5521 65.1124 16.8027 64.3655 16.8027H62.2202V19.9058H61.386V11.5514H64.3655ZM64.3655 16.015C64.8819 16.015 65.307 15.844 65.6407 15.5018C65.9824 15.1518 66.1532 14.7102 66.1532 14.1771C66.1532 13.644 65.9824 13.2064 65.6407 12.8643C65.307 12.5142 64.8819 12.3391 64.3655 12.3391H62.2202V16.015H64.3655Z" fill="black"/>
<path d="M73.7789 19.9058V13.103L69.1309 19.9058H68.4158V11.5514H69.2501V18.3543L73.8981 11.5514H74.6132V19.9058H73.7789Z" fill="black"/>
<path d="M82.3563 19.9058H81.2598L77.3507 15.8599V19.9058H76.5164V11.5514H77.3507V15.3706L81.1406 11.5514H82.2371L78.2326 15.6093L82.3563 19.9058Z" fill="black"/>
<path d="M82.6552 19.9058V19.1658C83.2352 19.2454 83.6682 19.0664 83.9542 18.6288C84.2482 18.1832 84.3952 17.3716 84.3952 16.1941V11.5514H89.806V19.9058H88.9718V12.3391H85.2295V16.2179C85.2295 16.9738 85.1699 17.6063 85.0507 18.1156C84.9315 18.6248 84.7528 19.0147 84.5144 19.2852C84.284 19.5477 84.0178 19.7268 83.7159 19.8222C83.4219 19.9098 83.0683 19.9376 82.6552 19.9058Z" fill="black"/>
<path d="M97.2705 19.9058L96.4958 17.853H92.539L91.7644 19.9058H90.8824L94.0884 11.5514H94.9465L98.1525 19.9058H97.2705ZM92.837 17.0653H96.1979L94.5174 12.5898L92.837 17.0653Z" fill="black"/>
<path d="M105.183 19.1181H106.077V21.505H105.242V19.9058H99.2833V21.505H98.449V19.1181H99.1283C99.6766 18.4736 99.9507 17.479 99.9507 16.1344V11.5514H105.183V19.1181ZM100.118 19.1181H104.348V12.3391H100.785V16.1583C100.785 17.479 100.563 18.4657 100.118 19.1181Z" fill="black"/>
<path d="M112.815 11.5514H113.65V19.9058H112.815V16.0031H108.287V19.9058H107.452V11.5514H108.287V15.2154H112.815V11.5514Z" fill="black"/>
<path d="M122.454 18.7958C121.619 19.6313 120.598 20.049 119.391 20.049C118.183 20.049 117.162 19.6313 116.328 18.7958C115.493 17.9525 115.076 16.93 115.076 15.7286C115.076 14.5272 115.493 13.5087 116.328 12.6733C117.162 11.8299 118.183 11.4082 119.391 11.4082C120.598 11.4082 121.619 11.8299 122.454 12.6733C123.288 13.5087 123.705 14.5272 123.705 15.7286C123.705 16.93 123.288 17.9525 122.454 18.7958ZM116.912 18.223C117.579 18.8993 118.405 19.2374 119.391 19.2374C120.376 19.2374 121.202 18.8993 121.87 18.223C122.537 17.5387 122.871 16.7073 122.871 15.7286C122.871 14.75 122.537 13.9225 121.87 13.2462C121.202 12.5619 120.376 12.2198 119.391 12.2198C118.405 12.2198 117.579 12.5619 116.912 13.2462C116.244 13.9225 115.91 14.75 115.91 15.7286C115.91 16.7073 116.244 17.5387 116.912 18.223Z" fill="black"/>
<path d="M126.681 10.5967V9.90444H129.78V10.5967H126.681ZM130.495 19.9058V13.103L125.847 19.9058H125.132V11.5514H125.966V18.3543L130.614 11.5514H131.329V19.9058H130.495Z" fill="black"/>
<path d="M58.8813 30.963V24.1602L54.2332 30.963H53.5181V22.6087H54.3524V29.4115L59.0005 22.6087H59.7155V30.963H58.8813Z" fill="black"/>
<path d="M66.9819 22.6087H67.8162V30.963H66.9819V27.0603H62.453V30.963H61.6187V22.6087H62.453V26.2726H66.9819V22.6087Z" fill="black"/>
<path d="M76.8821 24.4705C77.621 25.0274 77.9905 25.7992 77.9905 26.7858C77.9905 27.7724 77.621 28.5442 76.8821 29.1012C76.1511 29.6581 75.1818 29.9645 73.9741 30.0202V30.963H73.1398V30.0202C71.9321 29.9645 70.9588 29.6581 70.2199 29.1012C69.4889 28.5442 69.1234 27.7724 69.1234 26.7858C69.1234 25.7992 69.4889 25.0274 70.2199 24.4705C70.9588 23.9135 71.9321 23.6072 73.1398 23.5515V22.6087H73.9741V23.5515C75.1818 23.6072 76.1511 23.9135 76.8821 24.4705ZM70.8158 25.0195C70.2437 25.4332 69.9577 26.022 69.9577 26.7858C69.9577 27.5497 70.2437 28.1424 70.8158 28.5641C71.3879 28.9779 72.1625 29.2086 73.1398 29.2563V24.3153C72.1625 24.3631 71.3879 24.5978 70.8158 25.0195ZM73.9741 29.2563C74.9514 29.2086 75.7261 28.9779 76.2981 28.5641C76.8702 28.1424 77.1562 27.5497 77.1562 26.7858C77.1562 26.022 76.8702 25.4332 76.2981 25.0195C75.7261 24.5978 74.9514 24.3631 73.9741 24.3153V29.2563Z" fill="black"/>
<path d="M86.1987 29.8531C85.3644 30.6885 84.3434 31.1062 83.1357 31.1062C81.928 31.1062 80.907 30.6885 80.0727 29.8531C79.2385 29.0097 78.8213 27.9873 78.8213 26.7858C78.8213 25.5844 79.2385 24.566 80.0727 23.7305C80.907 22.8871 81.928 22.4654 83.1357 22.4654C84.3434 22.4654 85.3644 22.8871 86.1987 23.7305C87.0329 24.566 87.4501 25.5844 87.4501 26.7858C87.4501 27.9873 87.0329 29.0097 86.1987 29.8531ZM80.6567 29.2802C81.3242 29.9565 82.1505 30.2947 83.1357 30.2947C84.1209 30.2947 84.9473 29.9565 85.6147 29.2802C86.2821 28.5959 86.6158 27.7645 86.6158 26.7858C86.6158 25.8072 86.2821 24.9797 85.6147 24.3034C84.9473 23.6191 84.1209 23.277 83.1357 23.277C82.1505 23.277 81.3242 23.6191 80.6567 24.3034C79.9893 24.9797 79.6556 25.8072 79.6556 26.7858C79.6556 27.7645 79.9893 28.5959 80.6567 29.2802Z" fill="black"/>
<path d="M91.8563 22.6087C92.6032 22.6087 93.2269 22.8593 93.7275 23.3605C94.2281 23.8618 94.4783 24.4864 94.4783 25.2343C94.4783 25.9822 94.2281 26.6068 93.7275 27.1081C93.2269 27.6093 92.6032 27.86 91.8563 27.86H89.7111V30.963H88.8768V22.6087H91.8563ZM91.8563 27.0723C92.3728 27.0723 92.7979 26.9012 93.1316 26.5591C93.4732 26.209 93.6441 25.7674 93.6441 25.2343C93.6441 24.7012 93.4732 24.2636 93.1316 23.9215C92.7979 23.5714 92.3728 23.3964 91.8563 23.3964H89.7111V27.0723H91.8563Z" fill="black"/>
<path d="M103.534 22.6087V30.963H102.7V23.8737L99.78 28.767H99.6609L96.7409 23.8737V30.963H95.9066V22.6087H96.9435L99.7204 27.2632L102.497 22.6087H103.534Z" fill="black"/>
<path d="M110.993 30.963L110.218 28.9102H106.261L105.486 30.963H104.605L107.811 22.6087H108.669L111.875 30.963H110.993ZM106.559 28.1225H109.92L108.24 23.647L106.559 28.1225Z" fill="black"/>
<path d="M117.596 22.6087V23.3964H115.034V30.963H114.2V23.3964H111.637V22.6087H117.596Z" fill="black"/>
<path d="M124.152 30.963V24.1602L119.504 30.963H118.789V22.6087H119.623V29.4115L124.271 22.6087H124.986V30.963H124.152Z" fill="black"/>
<path d="M132.729 30.963H131.633L127.723 26.9171V30.963H126.889V22.6087H127.723V26.4278L131.513 22.6087H132.61L128.605 26.6665L132.729 30.963Z" fill="black"/>
<path d="M139.166 30.963V24.1602L134.518 30.963H133.803V22.6087H134.637V29.4115L139.285 22.6087H140V30.963H139.166Z" fill="black"/>
<path fill-rule="evenodd" clip-rule="evenodd" d="M2.90447 0.211099C1.65973 0.615232 0.502357 1.75715 0.146966 2.93173C0.0324138 3.31043 0 6.1585 0 15.8461V28.2747L0.311359 28.942C0.723445 29.8251 1.56098 30.7056 2.36714 31.1033C2.95477 31.3932 3.14357 31.4256 4.24053 31.4256C5.34016 31.4256 5.52546 31.3936 6.12007 31.1003C7.09783 30.618 8.00298 29.5854 8.30283 28.6101C8.53252 27.8634 8.53914 27.5664 8.53914 18.0512V8.26062H17.8009L17.8147 3.42024L18.077 2.76917C18.5536 1.58641 19.6108 0.614995 20.8828 0.191256C21.1369 0.106586 21.3693 0.0543989 21.6289 0.0292745L13.4186 0.00897402C3.98482 -0.0143661 3.57436 -0.0064306 2.90447 0.211099ZM23.8301 0.313049L23.9001 0.346005C24.4502 0.605023 24.999 1.03114 25.4299 1.51234C24.9958 0.959371 24.4627 0.559776 23.8301 0.313049ZM26.3726 3.99261V28.3914L26.0624 29.0562C25.9911 29.209 25.9064 29.3606 25.8105 29.5089C26.869 28.2179 28.9645 25.6076 31.2606 22.7149L36.9842 15.5042L37.0434 21.8324C37.0995 27.8211 37.1152 28.19 37.3346 28.7064C38.1418 30.6071 39.6121 31.5575 41.6054 31.467C43.2598 31.3917 44.5905 30.5176 45.2712 29.0588L45.5814 28.3941V3.07014L45.2605 2.4137C44.864 1.60263 43.9866 0.761337 43.1089 0.350552C42.5441 0.0862253 42.2878 0.0395451 41.399 0.0395451C40.5146 0.0395451 40.2527 0.0866923 39.7004 0.3453C39.3413 0.513466 38.8447 0.835909 38.5967 1.06184C38.3488 1.28789 35.5319 4.75716 32.337 8.77153L26.5281 16.0702L26.4682 9.74528C26.4368 6.42537 26.4201 4.84226 26.3726 3.99261ZM23.8675 31.1811C23.383 31.3962 23.1192 31.4253 22.1321 31.4235C21.586 31.4226 21.2574 31.4118 20.9978 31.3674C20.7633 31.3218 20.5764 31.2433 20.3043 31.109C20.1178 31.017 19.9399 30.9134 19.7713 30.799C19.9504 30.928 20.1377 31.0413 20.3313 31.1363C20.5737 31.2554 20.7558 31.326 20.9978 31.3674C21.2635 31.419 21.5902 31.4283 22.1714 31.4283C23.17 31.4283 23.4063 31.4041 23.8675 31.1811Z" fill="#2659E1"/>
<path d="M20.8828 0.191256C19.6108 0.614995 18.5536 1.58641 18.077 2.76917L17.8147 3.42024L17.8009 8.26062H17.8334V17.8142C17.8334 23.4303 17.8794 27.6111 17.945 27.9584C18.155 29.0709 18.855 30.1392 19.7713 30.799C19.9399 30.9134 20.1178 31.017 20.3043 31.109C20.5764 31.2433 20.7633 31.3218 20.9978 31.3674C21.2574 31.4118 21.586 31.4226 22.1321 31.4235C23.1192 31.4253 23.383 31.3962 23.8675 31.1811C23.9185 31.1565 23.9723 31.1294 24.0302 31.0996C24.3817 30.9187 24.8645 30.5806 25.1031 30.3481C25.1677 30.2853 25.4177 29.9879 25.8105 29.5089C25.9064 29.3606 25.9911 29.209 26.0624 29.0562L26.3726 28.3914V3.99261C26.3319 3.26438 26.2687 3.07496 26.1543 2.79262C25.955 2.30031 25.7136 1.8736 25.4299 1.51234C24.999 1.03114 24.4502 0.605023 23.9001 0.346005L23.8301 0.313049C23.4424 0.16185 23.0172 0.0680611 22.5546 0.0315635L21.6289 0.0292745C21.3693 0.0543989 21.1369 0.106586 20.8828 0.191256Z" fill="#2659E1"/>
</svg>
